<svg width="93" height="25" viewBox="0 0 93 25" fill="none" xmlns="http://www.w3.org/2000/svg">
<path d="M4.62852 20.175C4.62852 19.475 4.80352 18.9333 5.15352 18.55C5.52018 18.1667 6.10352 17.975 6.90352 17.975H16.6785C16.9118 17.975 17.0702 17.9417 17.1535 17.875C17.2368 17.8083 17.2785 17.6917 17.2785 17.525V17.025C17.2785 16.825 17.2285 16.7 17.1285 16.65C17.0285 16.6 16.8785 16.575 16.6785 16.575H5.90352C5.52018 16.575 5.21185 16.4667 4.97852 16.25C4.74518 16.0167 4.62852 15.7167 4.62852 15.35C4.62852 15.0167 4.74518 14.725 4.97852 14.475C5.21185 14.225 5.52018 14.1 5.90352 14.1H18.0785C18.8785 14.1 19.4535 14.2917 19.8035 14.675C20.1702 15.0583 20.3535 15.6 20.3535 16.3V18.25C20.3535 18.95 20.1702 19.4917 19.8035 19.875C19.4535 20.2583 18.8785 20.45 18.0785 20.45H8.32852C8.04518 20.45 7.87018 20.4917 7.80352 20.575C7.75352 20.6583 7.72852 20.7667 7.72852 20.9V21.1C7.72852 21.4 7.88685 21.6333 8.20352 21.8C8.53685 21.9833 8.95352 22.1167 9.45352 22.2C9.95352 22.3 10.5118 22.3583 11.1285 22.375C11.7452 22.4083 12.3535 22.425 12.9535 22.425C13.3868 22.425 13.8618 22.4 14.3785 22.35C14.8952 22.3167 15.4035 22.2583 15.9035 22.175C16.4202 22.1083 16.9202 22.0167 17.4035 21.9C17.8868 21.8 18.3035 21.6833 18.6535 21.55C19.0035 21.4167 19.3702 21.3417 19.7535 21.325C20.1535 21.3083 20.4619 21.4833 20.6785 21.85C20.9119 22.2667 20.9368 22.6333 20.7535 22.95C20.5702 23.2833 20.2618 23.5417 19.8285 23.725C19.3285 23.9417 18.7785 24.125 18.1785 24.275C17.5952 24.425 16.9952 24.55 16.3785 24.65C15.7619 24.75 15.1535 24.8167 14.5535 24.85C13.9702 24.9 13.4368 24.925 12.9535 24.925C11.6535 24.925 10.4868 24.8667 9.45352 24.75C8.42018 24.6333 7.54518 24.425 6.82852 24.125C6.11185 23.8417 5.56185 23.4417 5.17852 22.925C4.81185 22.425 4.62852 21.7833 4.62852 21V20.175ZM9.35352 4.55C9.40352 5.18333 9.54518 5.76667 9.77852 6.3C10.0285 6.83333 10.3368 7.31667 10.7035 7.75C11.0868 8.18333 11.5202 8.575 12.0035 8.925C12.5035 9.25833 13.0202 9.54167 13.5535 9.775C13.6535 9.825 13.7702 9.9 13.9035 10C14.0535 10.0833 14.1785 10.2 14.2785 10.35C14.3785 10.4833 14.4452 10.65 14.4785 10.85C14.5119 11.0333 14.4785 11.2417 14.3785 11.475C14.2452 11.775 14.0785 11.9917 13.8785 12.125C13.6785 12.2417 13.4785 12.3083 13.2785 12.325C13.0785 12.3417 12.8868 12.325 12.7035 12.275C12.5369 12.225 12.4118 12.1833 12.3285 12.15C11.5285 11.8167 10.7452 11.3417 9.97852 10.725C9.21185 10.0917 8.51185 9.31667 7.87852 8.4C7.29518 9.33333 6.59518 10.1667 5.77852 10.9C4.96185 11.6167 4.05352 12.225 3.05352 12.725C2.95352 12.775 2.81185 12.8333 2.62852 12.9C2.46185 12.9667 2.27018 13 2.05352 13C1.85352 13 1.64518 12.95 1.42852 12.85C1.22852 12.75 1.05352 12.55 0.903516 12.25C0.786849 12.0167 0.736849 11.8083 0.753516 11.625C0.770182 11.4417 0.820182 11.2833 0.903516 11.15C1.00352 11.0167 1.11185 10.9083 1.22852 10.825C1.36185 10.7417 1.47018 10.675 1.55352 10.625C2.92018 9.94167 4.01185 9.10833 4.82852 8.125C5.66185 7.14167 6.12018 5.95 6.20352 4.55H2.62852C2.21185 4.55 1.88685 4.43333 1.65352 4.2C1.43685 3.96667 1.32852 3.65833 1.32852 3.275C1.32852 2.925 1.43685 2.625 1.65352 2.375C1.88685 2.125 2.21185 2 2.62852 2H12.9035C13.2868 2 13.5952 2.125 13.8285 2.375C14.0785 2.625 14.2035 2.925 14.2035 3.275C14.2035 3.65833 14.0785 3.96667 13.8285 4.2C13.5952 4.43333 13.2868 4.55 12.9035 4.55H9.35352ZM20.3535 11.575C20.3535 12.0583 20.1952 12.4333 19.8785 12.7C19.5785 12.9667 19.2202 13.1 18.8035 13.1C18.3702 13.1 18.0035 12.9667 17.7035 12.7C17.4202 12.4333 17.2785 12.0583 17.2785 11.575V2.3C17.2785 1.81667 17.4202 1.44167 17.7035 1.175C18.0035 0.891666 18.3702 0.749999 18.8035 0.749999C19.2202 0.749999 19.5785 0.891666 19.8785 1.175C20.1952 1.44167 20.3535 1.81667 20.3535 2.3V11.575ZM34.7393 10.8C33.5726 10.8 32.5059 10.7583 31.5393 10.675C30.5893 10.575 29.7643 10.375 29.0643 10.075C28.3809 9.775 27.8476 9.33333 27.4643 8.75C27.0809 8.16667 26.8893 7.38333 26.8893 6.4V3.6C26.8893 2.9 27.0643 2.35833 27.4143 1.975C27.7809 1.59167 28.3643 1.4 29.1643 1.4H40.3143C41.1143 1.4 41.6893 1.59167 42.0393 1.975C42.4059 2.35833 42.5893 2.9 42.5893 3.6V6.4C42.5893 7.38333 42.3976 8.16667 42.0143 8.75C41.6309 9.33333 41.0893 9.775 40.3893 10.075C39.7059 10.375 38.8809 10.575 37.9143 10.675C36.9643 10.7583 35.9059 10.8 34.7393 10.8ZM36.2643 14.825V18.25C36.2643 18.7333 36.1059 19.1083 35.7893 19.375C35.4893 19.6417 35.1309 19.775 34.7143 19.775C34.2809 19.775 33.9143 19.6417 33.6143 19.375C33.3143 19.1083 33.1643 18.7333 33.1643 18.25V14.825H25.1893C24.7726 14.825 24.4476 14.7167 24.2143 14.5C23.9976 14.2667 23.8893 13.9583 23.8893 13.575C23.8893 13.225 23.9976 12.925 24.2143 12.675C24.4476 12.425 24.7726 12.3 25.1893 12.3H44.1893C44.5726 12.3 44.8809 12.425 45.1143 12.675C45.3643 12.925 45.4893 13.225 45.4893 13.575C45.4893 13.9583 45.3643 14.2667 45.1143 14.5C44.8809 14.7167 44.5726 14.825 44.1893 14.825H36.2643ZM26.7643 17.925C26.7643 17.4417 26.9143 17.0667 27.2143 16.8C27.5309 16.5333 27.8976 16.4 28.3143 16.4C28.7476 16.4 29.1143 16.5333 29.4143 16.8C29.7143 17.0667 29.8643 17.4417 29.8643 17.925V19.125C29.8643 19.9083 30.0059 20.5167 30.2893 20.95C30.5726 21.4 30.9476 21.725 31.4143 21.925C31.8976 22.1417 32.4476 22.275 33.0643 22.325C33.6809 22.375 34.3143 22.4 34.9643 22.4C35.4476 22.4 35.9559 22.3583 36.4893 22.275C37.0226 22.2083 37.5476 22.1167 38.0643 22C38.5809 21.9 39.0559 21.775 39.4893 21.625C39.9393 21.4917 40.3143 21.35 40.6143 21.2C40.9643 21.0333 41.3309 20.95 41.7143 20.95C42.0976 20.9667 42.3809 21.1667 42.5643 21.55C42.7643 21.9833 42.7726 22.35 42.5893 22.65C42.4226 22.9667 42.1226 23.2333 41.6893 23.45C41.1893 23.7 40.6476 23.9167 40.0643 24.1C39.4976 24.2833 38.9143 24.4333 38.3143 24.55C37.7143 24.6833 37.1226 24.775 36.5393 24.825C35.9726 24.8917 35.4476 24.925 34.9643 24.925C33.7809 24.925 32.6893 24.8417 31.6893 24.675C30.6893 24.525 29.8226 24.25 29.0893 23.85C28.3559 23.4667 27.7809 22.9333 27.3643 22.25C26.9643 21.5667 26.7643 20.7 26.7643 19.65V17.925ZM34.7393 8.325C35.5059 8.325 36.1809 8.30833 36.7643 8.275C37.3643 8.24167 37.8643 8.15 38.2643 8C38.6643 7.85 38.9643 7.63333 39.1643 7.35C39.3809 7.05 39.4893 6.64167 39.4893 6.125V4.9C39.4893 4.55 39.4226 4.3 39.2893 4.15C39.1559 4 38.9226 3.925 38.5893 3.925H30.8893C30.5559 3.925 30.3226 4 30.1893 4.15C30.0559 4.3 29.9893 4.55 29.9893 4.9V6.1C29.9893 6.63333 30.0893 7.05 30.2893 7.35C30.5059 7.63333 30.8143 7.85 31.2143 8C31.6143 8.15 32.1059 8.24167 32.6893 8.275C33.2893 8.30833 33.9726 8.325 34.7393 8.325ZM67.9 22.475C67.9 22.9583 67.75 23.3333 67.45 23.6C67.1667 23.8667 66.8167 24 66.4 24C65.9667 24 65.6 23.8667 65.3 23.6C65.0167 23.3333 64.875 22.9583 64.875 22.475V11.9H63.175V21.325C63.175 21.8083 63.025 22.1833 62.725 22.45C62.4417 22.7167 62.0917 22.85 61.675 22.85C61.2417 22.85 60.8833 22.7167 60.6 22.45C60.3167 22.1833 60.175 21.8083 60.175 21.325V2.8C60.175 2.31667 60.3167 1.94167 60.6 1.675C60.8833 1.39167 61.2417 1.25 61.675 1.25C62.0917 1.25 62.4417 1.39167 62.725 1.675C63.025 1.94167 63.175 2.31667 63.175 2.8V9.375H64.875V2.3C64.875 1.81667 65.0167 1.44167 65.3 1.175C65.6 0.891666 65.9667 0.749999 66.4 0.749999C66.8167 0.749999 67.1667 0.891666 67.45 1.175C67.75 1.44167 67.9 1.81667 67.9 2.3V22.475ZM48.15 13.925C48.15 13.1583 48.2583 12.4417 48.475 11.775C48.7083 11.0917 49.0333 10.5083 49.45 10.025C49.8833 9.54167 50.4167 9.15833 51.05 8.875C51.6833 8.59167 52.4167 8.45 53.25 8.45C54.0833 8.45 54.8167 8.59167 55.45 8.875C56.0833 9.14167 56.6167 9.525 57.05 10.025C57.4833 10.5083 57.8083 11.0833 58.025 11.75C58.2417 12.4167 58.35 13.1417 58.35 13.925C58.35 14.7083 58.2417 15.4333 58.025 16.1C57.8083 16.7667 57.4833 17.35 57.05 17.85C56.6167 18.3333 56.0833 18.7167 55.45 19C54.8167 19.2667 54.0833 19.4 53.25 19.4C52.4167 19.4 51.6833 19.2583 51.05 18.975C50.4167 18.6917 49.8833 18.3083 49.45 17.825C49.0333 17.3417 48.7083 16.7667 48.475 16.1C48.2583 15.4333 48.15 14.7083 48.15 13.925ZM48.675 6.9C48.2583 6.9 47.9333 6.78333 47.7 6.55C47.4667 6.31667 47.35 6.01667 47.35 5.65C47.35 5.3 47.4667 5 47.7 4.75C47.9333 4.48333 48.2583 4.35 48.675 4.35H51.725V2.075C51.725 1.59167 51.8667 1.21667 52.15 0.949999C52.45 0.666666 52.8167 0.524999 53.25 0.524999C53.6667 0.524999 54.025 0.666666 54.325 0.949999C54.6417 1.21667 54.8 1.59167 54.8 2.075V4.35H57.85C58.25 4.35 58.5667 4.48333 58.8 4.75C59.0333 5 59.15 5.3 59.15 5.65C59.15 6.01667 59.0333 6.31667 58.8 6.55C58.5667 6.78333 58.25 6.9 57.85 6.9H48.675ZM55.325 13.925C55.325 13.025 55.15 12.3083 54.8 11.775C54.4667 11.2417 53.95 10.975 53.25 10.975C52.5667 10.975 52.05 11.2417 51.7 11.775C51.35 12.3083 51.175 13.0167 51.175 13.9C51.175 14.8 51.35 15.525 51.7 16.075C52.05 16.6083 52.5667 16.875 53.25 16.875C53.95 16.875 54.4667 16.6083 54.8 16.075C55.15 15.5417 55.325 14.825 55.325 13.925ZM90.0857 8.2C90.0857 9.1 89.9024 9.925 89.5357 10.675C89.1691 11.4083 88.6274 12.05 87.9107 12.6C87.2107 13.1333 86.3441 13.55 85.3107 13.85C84.2774 14.1333 83.0941 14.275 81.7607 14.275C80.4274 14.275 79.2441 14.1333 78.2107 13.85C77.1774 13.55 76.3024 13.1333 75.5857 12.6C74.8857 12.05 74.3441 11.4083 73.9607 10.675C73.5941 9.925 73.4107 9.1 73.4107 8.2C73.4107 7.3 73.5941 6.48333 73.9607 5.75C74.3441 5 74.8857 4.35833 75.5857 3.825C76.3024 3.275 77.1774 2.85833 78.2107 2.575C79.2441 2.275 80.4274 2.125 81.7607 2.125C83.0941 2.125 84.2774 2.275 85.3107 2.575C86.3441 2.85833 87.2107 3.275 87.9107 3.825C88.6274 4.35833 89.1691 5 89.5357 5.75C89.9024 6.48333 90.0857 7.3 90.0857 8.2ZM72.2107 20.925C71.7941 20.925 71.4691 20.8083 71.2357 20.575C71.0191 20.3583 70.9107 20.0583 70.9107 19.675C70.9107 19.325 71.0191 19.025 71.2357 18.775C71.4691 18.525 71.7941 18.4 72.2107 18.4H76.5607V16.025C76.5607 15.5417 76.7024 15.1667 76.9857 14.9C77.2857 14.6167 77.6524 14.475 78.0857 14.475C78.5024 14.475 78.8691 14.6167 79.1857 14.9C79.5024 15.1667 79.6607 15.5417 79.6607 16.025V18.4H83.8607V16.025C83.8607 15.5417 84.0024 15.1667 84.2857 14.9C84.5857 14.6167 84.9524 14.475 85.3857 14.475C85.8024 14.475 86.1691 14.6167 86.4857 14.9C86.8024 15.1667 86.9607 15.5417 86.9607 16.025V18.4H91.2107C91.5941 18.4 91.9024 18.525 92.1357 18.775C92.3857 19.025 92.5107 19.325 92.5107 19.675C92.5107 20.0583 92.3857 20.3583 92.1357 20.575C91.9024 20.8083 91.5941 20.925 91.2107 20.925H72.2107ZM81.7607 4.575C80.0774 4.575 78.7774 4.89167 77.8607 5.525C76.9607 6.14167 76.5107 7.03333 76.5107 8.2C76.5107 9.35 76.9607 10.2417 77.8607 10.875C78.7774 11.5083 80.0774 11.825 81.7607 11.825C83.4274 11.825 84.7107 11.5083 85.6107 10.875C86.5274 10.2417 86.9857 9.35 86.9857 8.2C86.9857 7.03333 86.5274 6.14167 85.6107 5.525C84.7107 4.89167 83.4274 4.575 81.7607 4.575Z" fill="#339931"/>
</svg>
