<svg width="143" height="28" viewBox="0 0 143 28" fill="none" xmlns="http://www.w3.org/2000/svg">
<path d="M10.0002 24C16.6014 20.2809 18.2939 16.7879 18.2677 8.42361H1.73258C1.74909 16.7919 3.66887 20.1242 10.0002 24Z" fill="#9F8966"/>
<path d="M10.0435 2.03894C10.1321 2.74715 10.4293 3.72814 9.11599 3.91711C7.08109 4.04035 6.16829 1.73174 6.05699 0.842806C5.94572 -0.0461297 5.92226 0.141347 6.71069 0.02792C7.49912 -0.0855083 9.79642 0.0657894 10.0435 2.03894Z" fill="#339931"/>
<path d="M9.85105 2.65292C9.80232 3.29075 9.59275 3.79426 10.756 3.89649C12.8832 3.88138 13.2475 2.1812 13.3087 1.3806C13.3699 0.580003 13.3983 0.746464 12.7 0.685109C12.0017 0.623759 9.98692 0.875845 9.85105 2.65292Z" fill="#339931"/>
<path d="M7.40142 1.21478C8.70139 1.4302 9.22205 1.89642 9.60735 2.94894" stroke="white" stroke-opacity="0.8" stroke-width="0.5" stroke-linecap="round"/>
<path d="M12.1111 1.75629C11.27 1.99482 10.9402 2.33258 10.7092 3.03356" stroke="white" stroke-opacity="0.8" stroke-width="0.5" stroke-linecap="round"/>
<path d="M16.2459 3H3.75413C1.68078 3 0 4.76349 0 6.93887C0 9.11425 1.68078 10.8777 3.75413 10.8777H16.2459C18.3192 10.8777 20 9.11425 20 6.93887C20 4.76349 18.3192 3 16.2459 3Z" fill="#77684F"/>
<path d="M2.37167 4.30594V7.17056" stroke="#2F1E02" stroke-width="0.3"/>
<path d="M1.73258 5.38367H3.62233" stroke="#2F1E02" stroke-width="0.3"/>
<path d="M2.04753 6.45868H3.9373" stroke="#2F1E02" stroke-width="0.3"/>
<path d="M3.3165 4.84299V7.34955" stroke="#2F1E02" stroke-width="0.3"/>
<path d="M4.44157 3.94733V5.46389" stroke="#2F1E02" stroke-width="0.3"/>
<path d="M3.93716 4.43674H5.287" stroke="#2F1E02" stroke-width="0.3"/>
<path d="M4.1622 5.00543H5.51203" stroke="#2F1E02" stroke-width="0.3"/>
<path d="M5.1162 4.23166V5.55866" stroke="#2F1E02" stroke-width="0.3"/>
<path d="M3.88057 13.2318C4.19554 15.9174 4.9042 17.8868 7.10894 19.4982" stroke="white" stroke-opacity="0.6" stroke-linecap="round"/>
<path d="M38.4481 16.45V22.525C38.4481 23.0083 38.2898 23.3833 37.9731 23.65C37.6731 23.9167 37.3148 24.05 36.8981 24.05C36.4648 24.05 36.0981 23.9167 35.7981 23.65C35.4981 23.3833 35.3481 23.0083 35.3481 22.525V16.45H27.4231C27.0065 16.45 26.6815 16.3417 26.4481 16.125C26.2315 15.8917 26.1231 15.5833 26.1231 15.2C26.1231 14.85 26.2315 14.55 26.4481 14.3C26.6815 14.05 27.0065 13.925 27.4231 13.925H46.4231C46.8065 13.925 47.1148 14.05 47.3481 14.3C47.5981 14.55 47.7231 14.85 47.7231 15.2C47.7231 15.5833 47.5981 15.8917 47.3481 16.125C47.1148 16.3417 46.8065 16.45 46.4231 16.45H38.4481ZM45.8981 10.85C45.8148 11.1667 45.6731 11.3917 45.4731 11.525C45.2898 11.6583 45.0898 11.75 44.8731 11.8C44.6565 11.8333 44.4398 11.8333 44.2231 11.8C44.0231 11.7667 43.8731 11.7333 43.7731 11.7C42.3065 11.2667 40.9731 10.6667 39.7731 9.9C38.5898 9.13333 37.6481 8.19167 36.9481 7.075C36.2481 8.175 35.3231 9.10833 34.1731 9.875C33.0231 10.625 31.7231 11.2167 30.2731 11.65C30.1565 11.6833 29.9898 11.725 29.7731 11.775C29.5565 11.825 29.3315 11.8417 29.0981 11.825C28.8815 11.7917 28.6731 11.7083 28.4731 11.575C28.2731 11.425 28.1231 11.1833 28.0231 10.85C27.9398 10.6 27.9315 10.3833 27.9981 10.2C28.0815 10.0167 28.1898 9.86667 28.3231 9.75C28.4565 9.61667 28.5981 9.51667 28.7481 9.45C28.9148 9.36667 29.0565 9.30833 29.1731 9.275C30.0231 9.025 30.8231 8.70833 31.5731 8.325C32.3231 7.94167 32.9815 7.49167 33.5481 6.975C34.1148 6.45833 34.5565 5.88333 34.8731 5.25C35.2065 4.61667 35.3731 3.925 35.3731 3.175C35.3731 2.69167 35.5231 2.31667 35.8231 2.05C36.1398 1.76667 36.5148 1.625 36.9481 1.625C37.3815 1.625 37.7481 1.76667 38.0481 2.05C38.3648 2.31667 38.5231 2.69167 38.5231 3.175C38.5231 3.925 38.6815 4.61667 38.9981 5.25C39.3315 5.86667 39.7731 6.43333 40.3231 6.95C40.8731 7.45 41.5148 7.9 42.2481 8.3C42.9981 8.68333 43.7981 9 44.6481 9.25C44.7648 9.28333 44.9065 9.34167 45.0731 9.425C45.2565 9.49167 45.4148 9.59167 45.5481 9.725C45.6981 9.84167 45.8065 9.99167 45.8731 10.175C45.9565 10.3583 45.9648 10.5833 45.8981 10.85ZM51.5089 9.375C51.5089 8.85833 51.6089 8.38333 51.8089 7.95C52.0089 7.5 52.3172 7.11667 52.7339 6.8C53.1672 6.48333 53.7172 6.24167 54.3839 6.075C55.0506 5.89167 55.8506 5.8 56.7839 5.8C57.7339 5.8 58.5422 5.89167 59.2089 6.075C59.8756 6.24167 60.4172 6.48333 60.8339 6.8C61.2672 7.11667 61.5839 7.5 61.7839 7.95C61.9839 8.38333 62.0839 8.85833 62.0839 9.375C62.0839 10.2917 61.7756 11.0667 61.1589 11.7C60.5589 12.3167 59.5839 12.7083 58.2339 12.875V13.775C59.0006 13.7083 59.7589 13.6417 60.5089 13.575C61.2756 13.4917 62.0589 13.4 62.8589 13.3C62.9756 13.2833 63.1172 13.275 63.2839 13.275C63.4506 13.275 63.6172 13.3 63.7839 13.35C63.9506 13.4 64.0922 13.4917 64.2089 13.625C64.3422 13.7583 64.4256 13.9583 64.4589 14.225C64.4922 14.525 64.4672 14.7667 64.3839 14.95C64.3172 15.1167 64.2172 15.25 64.0839 15.35C63.9672 15.45 63.8256 15.5167 63.6589 15.55C63.5089 15.5833 63.3756 15.6083 63.2589 15.625C61.1422 15.8917 59.0756 16.1 57.0589 16.25C55.0422 16.4 52.9422 16.5 50.7589 16.55C50.6589 16.55 50.5172 16.55 50.3339 16.55C50.1506 16.55 49.9672 16.5167 49.7839 16.45C49.6172 16.3833 49.4589 16.275 49.3089 16.125C49.1756 15.9583 49.0922 15.725 49.0589 15.425C49.0256 15.1417 49.0506 14.9167 49.1339 14.75C49.2339 14.5833 49.3589 14.4583 49.5089 14.375C49.6589 14.2917 49.8172 14.2417 49.9839 14.225C50.1506 14.1917 50.2839 14.175 50.3839 14.175C51.2006 14.1583 52.0006 14.1333 52.7839 14.1C53.5839 14.0667 54.3839 14.0333 55.1839 14V12.85C53.8839 12.6667 52.9422 12.2667 52.3589 11.65C51.7922 11.0167 51.5089 10.2583 51.5089 9.375ZM68.3589 9.875V14.875C68.3589 15.3583 68.2006 15.7333 67.8839 16C67.5839 16.2667 67.2256 16.4 66.8089 16.4C66.3756 16.4 66.0089 16.2667 65.7089 16C65.4256 15.7333 65.2839 15.3583 65.2839 14.875V2.3C65.2839 1.81667 65.4256 1.44167 65.7089 1.175C66.0089 0.891666 66.3756 0.749999 66.8089 0.749999C67.2256 0.749999 67.5839 0.891666 67.8839 1.175C68.2006 1.44167 68.3589 1.81667 68.3589 2.3V7.35H70.6339C71.0172 7.35 71.3256 7.48333 71.5589 7.75C71.7922 8 71.9089 8.29167 71.9089 8.625C71.9089 8.99167 71.7922 9.29167 71.5589 9.525C71.3256 9.75833 71.0172 9.875 70.6339 9.875H68.3589ZM68.3589 23.35C68.3589 23.8333 68.2006 24.2083 67.8839 24.475C67.5839 24.7417 67.2256 24.875 66.8089 24.875C66.3756 24.875 66.0089 24.7417 65.7089 24.475C65.4256 24.2083 65.2839 23.8333 65.2839 23.35V20.75C65.2839 20.4 65.2172 20.15 65.0839 20C64.9506 19.85 64.7172 19.775 64.3839 19.775H53.3839C53.0006 19.775 52.6922 19.6583 52.4589 19.425C52.2256 19.1917 52.1089 18.8917 52.1089 18.525C52.1089 18.1917 52.2256 17.9 52.4589 17.65C52.6922 17.4 53.0006 17.275 53.3839 17.275H66.0839C66.8839 17.275 67.4589 17.4667 67.8089 17.85C68.1756 18.2333 68.3589 18.775 68.3589 19.475V23.35ZM51.4839 5.025C51.0672 5.025 50.7422 4.91667 50.5089 4.7C50.2756 4.48333 50.1589 4.19167 50.1589 3.825C50.1589 3.475 50.2756 3.175 50.5089 2.925C50.7422 2.675 51.0672 2.55 51.4839 2.55H55.2589V1.9C55.2589 1.41667 55.4006 1.04167 55.6839 0.774999C55.9839 0.491666 56.3506 0.35 56.7839 0.35C57.2006 0.35 57.5589 0.491666 57.8589 0.774999C58.1756 1.04167 58.3339 1.41667 58.3339 1.9V2.55H61.9839C62.3839 2.55 62.7006 2.675 62.9339 2.925C63.1672 3.175 63.2839 3.475 63.2839 3.825C63.2839 4.19167 63.1672 4.48333 62.9339 4.7C62.7006 4.91667 62.3839 5.025 61.9839 5.025H51.4839ZM59.1339 9.375C59.1339 9.00833 58.9506 8.7 58.5839 8.45C58.2339 8.2 57.6339 8.075 56.7839 8.075C55.9839 8.075 55.3922 8.2 55.0089 8.45C54.6422 8.7 54.4589 9 54.4589 9.35C54.4589 9.73333 54.6422 10.05 55.0089 10.3C55.3922 10.55 55.9839 10.675 56.7839 10.675C57.6339 10.675 58.2339 10.55 58.5839 10.3C58.9506 10.05 59.1339 9.74167 59.1339 9.375ZM93.6196 13.825C93.6196 14.3083 93.4696 14.6833 93.1696 14.95C92.8863 15.2167 92.5363 15.35 92.1196 15.35C91.6863 15.35 91.328 15.2167 91.0446 14.95C90.7613 14.6833 90.6196 14.3083 90.6196 13.825V9.15H88.9196V13.575C88.9196 14.0583 88.7696 14.4333 88.4696 14.7C88.1863 14.9667 87.8363 15.1 87.4196 15.1C86.9863 15.1 86.628 14.9667 86.3446 14.7C86.0613 14.4333 85.9196 14.0583 85.9196 13.575V2.725C85.9196 2.24167 86.0613 1.86667 86.3446 1.6C86.628 1.31667 86.9863 1.175 87.4196 1.175C87.8363 1.175 88.1863 1.31667 88.4696 1.6C88.7696 1.86667 88.9196 2.24167 88.9196 2.725V6.625H90.6196V2.3C90.6196 1.81667 90.7613 1.44167 91.0446 1.175C91.328 0.891666 91.6863 0.749999 92.1196 0.749999C92.5363 0.749999 92.8863 0.891666 93.1696 1.175C93.4696 1.44167 93.6196 1.81667 93.6196 2.3V13.825ZM73.9946 10.875C73.9946 10.3583 74.078 9.84167 74.2446 9.325C74.428 8.79167 74.7196 8.31667 75.1196 7.9C75.5196 7.46667 76.0363 7.125 76.6696 6.875C77.303 6.60833 78.0863 6.475 79.0196 6.475C79.953 6.475 80.7363 6.60833 81.3696 6.875C82.0196 7.125 82.5446 7.45833 82.9446 7.875C83.3446 8.29167 83.628 8.76667 83.7946 9.3C83.978 9.81667 84.0696 10.3417 84.0696 10.875C84.0696 11.4083 83.978 11.9417 83.7946 12.475C83.628 12.9917 83.3446 13.4583 82.9446 13.875C82.5446 14.2917 82.0196 14.6333 81.3696 14.9C80.7363 15.15 79.953 15.275 79.0196 15.275C78.0863 15.275 77.303 15.15 76.6696 14.9C76.0363 14.6333 75.5196 14.2917 75.1196 13.875C74.7196 13.4417 74.428 12.9667 74.2446 12.45C74.078 11.9333 73.9946 11.4083 73.9946 10.875ZM90.6446 17.65C90.728 18.55 91.0113 19.375 91.4946 20.125C91.9946 20.8917 92.7863 21.5417 93.8696 22.075C93.953 22.1083 94.053 22.1667 94.1696 22.25C94.2863 22.35 94.378 22.4667 94.4446 22.6C94.528 22.7333 94.578 22.8917 94.5946 23.075C94.6113 23.2583 94.5613 23.4583 94.4446 23.675C94.3113 23.925 94.153 24.1 93.9696 24.2C93.7863 24.3 93.5946 24.35 93.3946 24.35C93.2113 24.3667 93.0363 24.35 92.8696 24.3C92.7196 24.2667 92.603 24.225 92.5196 24.175C91.8863 23.875 91.2696 23.4583 90.6696 22.925C90.0863 22.4083 89.5863 21.8583 89.1696 21.275C88.7363 21.975 88.2113 22.6167 87.5946 23.2C86.978 23.7833 86.3196 24.2667 85.6196 24.65C85.5363 24.7 85.4113 24.75 85.2446 24.8C85.078 24.8667 84.8946 24.9 84.6946 24.9C84.5113 24.9167 84.3113 24.875 84.0946 24.775C83.8946 24.675 83.7196 24.4833 83.5696 24.2C83.4363 23.9833 83.378 23.7833 83.3946 23.6C83.4113 23.4167 83.453 23.2583 83.5196 23.125C83.603 22.9917 83.6946 22.8833 83.7946 22.8C83.9113 22.7167 84.0113 22.65 84.0946 22.6C84.6613 22.2833 85.153 21.9167 85.5696 21.5C85.9863 21.1 86.3363 20.6833 86.6196 20.25C86.903 19.8167 87.128 19.375 87.2946 18.925C87.4613 18.475 87.5696 18.05 87.6196 17.65C87.6863 17.1667 87.828 16.7667 88.0446 16.45C88.278 16.1167 88.6363 15.95 89.1196 15.95C89.5863 15.95 89.9446 16.1167 90.1946 16.45C90.4446 16.7667 90.5946 17.1667 90.6446 17.65ZM74.3946 5.725C73.978 5.725 73.653 5.60833 73.4196 5.375C73.1863 5.14167 73.0696 4.84167 73.0696 4.475C73.0696 4.125 73.1863 3.825 73.4196 3.575C73.653 3.30833 73.978 3.175 74.3946 3.175H77.5696V1.9C77.5696 1.41667 77.7113 1.04167 77.9946 0.774999C78.2946 0.491666 78.6613 0.35 79.0946 0.35C79.5113 0.35 79.8696 0.491666 80.1696 0.774999C80.4863 1.04167 80.6446 1.41667 80.6446 1.9V3.175H83.5696C83.9696 3.175 84.2863 3.30833 84.5196 3.575C84.753 3.825 84.8696 4.125 84.8696 4.475C84.8696 4.84167 84.753 5.14167 84.5196 5.375C84.2863 5.60833 83.9696 5.725 83.5696 5.725H74.3946ZM82.1696 17.45C82.2863 17.9333 82.4946 18.425 82.7946 18.925C83.1113 19.4083 83.4363 19.7833 83.7696 20.05C83.8363 20.1 83.9196 20.175 84.0196 20.275C84.1196 20.375 84.1946 20.5 84.2446 20.65C84.3113 20.8 84.3446 20.9667 84.3446 21.15C84.3446 21.35 84.278 21.5583 84.1446 21.775C83.9946 22.025 83.828 22.1917 83.6446 22.275C83.4613 22.375 83.278 22.425 83.0946 22.425C82.928 22.425 82.7696 22.3917 82.6196 22.325C82.4863 22.275 82.3863 22.225 82.3196 22.175C82.003 21.9417 81.728 21.7 81.4946 21.45C81.2613 21.2167 81.0196 20.9333 80.7696 20.6C80.3363 21.35 79.778 22.0417 79.0946 22.675C78.428 23.325 77.7446 23.8417 77.0446 24.225C76.9613 24.275 76.828 24.3333 76.6446 24.4C76.478 24.4667 76.2946 24.5 76.0946 24.5C75.8946 24.5 75.6863 24.45 75.4696 24.35C75.2696 24.25 75.0946 24.0583 74.9446 23.775C74.8113 23.5583 74.753 23.35 74.7696 23.15C74.7863 22.9667 74.8363 22.8 74.9196 22.65C75.0196 22.5 75.128 22.375 75.2446 22.275C75.378 22.1917 75.4863 22.125 75.5696 22.075C76.6696 21.4417 77.478 20.725 77.9946 19.925C78.5113 19.1083 78.853 18.3167 79.0196 17.55C79.1196 17.1 79.278 16.725 79.4946 16.425C79.728 16.1083 80.0863 15.95 80.5696 15.95C81.0363 15.95 81.3946 16.0917 81.6446 16.375C81.8946 16.6583 82.0696 17.0167 82.1696 17.45ZM81.1696 10.875C81.1696 10.6417 81.1363 10.4083 81.0696 10.175C81.0196 9.925 80.9113 9.70833 80.7446 9.525C80.578 9.325 80.353 9.16667 80.0696 9.05C79.803 8.93333 79.453 8.875 79.0196 8.875C78.6196 8.875 78.278 8.93333 77.9946 9.05C77.728 9.16667 77.5113 9.325 77.3446 9.525C77.1946 9.70833 77.078 9.91667 76.9946 10.15C76.928 10.3833 76.8946 10.6167 76.8946 10.85C76.8946 11.1 76.928 11.35 76.9946 11.6C77.078 11.8333 77.1946 12.05 77.3446 12.25C77.5113 12.4333 77.728 12.5833 77.9946 12.7C78.278 12.8167 78.6196 12.875 79.0196 12.875C79.453 12.875 79.803 12.8167 80.0696 12.7C80.353 12.5833 80.578 12.4333 80.7446 12.25C80.9113 12.05 81.0196 11.8333 81.0696 11.6C81.1363 11.35 81.1696 11.1083 81.1696 10.875ZM103.555 18.925C102.455 18.925 101.514 18.7167 100.73 18.3C99.9637 17.8833 99.3304 17.3083 98.8304 16.575C98.3304 15.8417 97.9637 14.9833 97.7304 14C97.5137 13 97.4054 11.9167 97.4054 10.75C97.4054 9.58333 97.5137 8.50833 97.7304 7.525C97.9637 6.525 98.3304 5.65833 98.8304 4.925C99.3304 4.19167 99.9637 3.61667 100.73 3.2C101.514 2.78333 102.455 2.575 103.555 2.575C104.655 2.575 105.589 2.78333 106.355 3.2C107.139 3.61667 107.78 4.19167 108.28 4.925C108.78 5.65833 109.139 6.525 109.355 7.525C109.589 8.50833 109.705 9.58333 109.705 10.75C109.705 11.9167 109.589 13 109.355 14C109.139 14.9833 108.78 15.8417 108.28 16.575C107.78 17.3083 107.139 17.8833 106.355 18.3C105.589 18.7167 104.655 18.925 103.555 18.925ZM116.63 22.4C116.63 22.8833 116.472 23.2583 116.155 23.525C115.855 23.7917 115.497 23.925 115.08 23.925C114.647 23.925 114.28 23.7917 113.98 23.525C113.697 23.2583 113.555 22.8833 113.555 22.4V11.9H111.555C111.172 11.9 110.864 11.7833 110.63 11.55C110.397 11.3 110.28 10.9917 110.28 10.625C110.28 10.2917 110.397 10 110.63 9.75C110.864 9.48333 111.172 9.35 111.555 9.35H113.555V2.3C113.555 1.81667 113.697 1.44167 113.98 1.175C114.28 0.891666 114.647 0.749999 115.08 0.749999C115.497 0.749999 115.855 0.891666 116.155 1.175C116.472 1.44167 116.63 1.81667 116.63 2.3V22.4ZM103.555 16.3C104.639 16.3 105.422 15.8 105.905 14.8C106.389 13.8 106.63 12.45 106.63 10.75C106.63 9.05 106.389 7.7 105.905 6.7C105.422 5.7 104.639 5.2 103.555 5.2C102.472 5.2 101.689 5.7 101.205 6.7C100.722 7.7 100.48 9.05 100.48 10.75C100.48 12.45 100.722 13.8 101.205 14.8C101.689 15.8 102.472 16.3 103.555 16.3ZM139.341 8.2C139.341 9.1 139.158 9.925 138.791 10.675C138.424 11.4083 137.883 12.05 137.166 12.6C136.466 13.1333 135.599 13.55 134.566 13.85C133.533 14.1333 132.349 14.275 131.016 14.275C129.683 14.275 128.499 14.1333 127.466 13.85C126.433 13.55 125.558 13.1333 124.841 12.6C124.141 12.05 123.599 11.4083 123.216 10.675C122.849 9.925 122.666 9.1 122.666 8.2C122.666 7.3 122.849 6.48333 123.216 5.75C123.599 5 124.141 4.35833 124.841 3.825C125.558 3.275 126.433 2.85833 127.466 2.575C128.499 2.275 129.683 2.125 131.016 2.125C132.349 2.125 133.533 2.275 134.566 2.575C135.599 2.85833 136.466 3.275 137.166 3.825C137.883 4.35833 138.424 5 138.791 5.75C139.158 6.48333 139.341 7.3 139.341 8.2ZM121.466 20.925C121.049 20.925 120.724 20.8083 120.491 20.575C120.274 20.3583 120.166 20.0583 120.166 19.675C120.166 19.325 120.274 19.025 120.491 18.775C120.724 18.525 121.049 18.4 121.466 18.4H125.816V16.025C125.816 15.5417 125.958 15.1667 126.241 14.9C126.541 14.6167 126.908 14.475 127.341 14.475C127.758 14.475 128.124 14.6167 128.441 14.9C128.758 15.1667 128.916 15.5417 128.916 16.025V18.4H133.116V16.025C133.116 15.5417 133.258 15.1667 133.541 14.9C133.841 14.6167 134.208 14.475 134.641 14.475C135.058 14.475 135.424 14.6167 135.741 14.9C136.058 15.1667 136.216 15.5417 136.216 16.025V18.4H140.466C140.849 18.4 141.158 18.525 141.391 18.775C141.641 19.025 141.766 19.325 141.766 19.675C141.766 20.0583 141.641 20.3583 141.391 20.575C141.158 20.8083 140.849 20.925 140.466 20.925H121.466ZM131.016 4.575C129.333 4.575 128.033 4.89167 127.116 5.525C126.216 6.14167 125.766 7.03333 125.766 8.2C125.766 9.35 126.216 10.2417 127.116 10.875C128.033 11.5083 129.333 11.825 131.016 11.825C132.683 11.825 133.966 11.5083 134.866 10.875C135.783 10.2417 136.241 9.35 136.241 8.2C136.241 7.03333 135.783 6.14167 134.866 5.525C133.966 4.89167 132.683 4.575 131.016 4.575Z" fill="#339931"/>
</svg>
