<svg width="150" height="28" viewBox="0 0 150 28" fill="none" xmlns="http://www.w3.org/2000/svg">
<path d="M34.5697 5.625V6.95C34.5697 8.83333 34.9614 10.525 35.7447 12.025C36.5447 13.525 37.6947 14.85 39.1947 16C39.2947 16.0833 39.4114 16.1917 39.5447 16.325C39.6947 16.4417 39.8114 16.5917 39.8947 16.775C39.9947 16.9417 40.0447 17.1333 40.0447 17.35C40.0614 17.55 39.9781 17.7667 39.7947 18C39.5614 18.2833 39.3281 18.4667 39.0947 18.55C38.8614 18.6167 38.6364 18.6333 38.4197 18.6C38.2031 18.55 38.0114 18.475 37.8447 18.375C37.6781 18.2583 37.5447 18.1583 37.4447 18.075C36.5447 17.3583 35.7114 16.5333 34.9447 15.6C34.1781 14.6667 33.5281 13.675 32.9947 12.625C32.4114 13.7583 31.6947 14.8333 30.8447 15.85C29.9947 16.85 29.0864 17.725 28.1197 18.475C28.0364 18.5417 27.9114 18.6167 27.7447 18.7C27.5781 18.7833 27.3947 18.8333 27.1947 18.85C26.9947 18.8667 26.7864 18.8417 26.5697 18.775C26.3531 18.6917 26.1614 18.5167 25.9947 18.25C25.8447 18.0333 25.7614 17.825 25.7447 17.625C25.7281 17.425 25.7531 17.25 25.8197 17.1C25.8864 16.95 25.9614 16.8167 26.0447 16.7C26.1447 16.5833 26.2364 16.5 26.3197 16.45C27.9197 15.2667 29.1697 13.8583 30.0697 12.225C30.9864 10.5917 31.4447 8.83333 31.4447 6.95V5.625H27.8697C27.4531 5.625 27.1281 5.50833 26.8947 5.275C26.6781 5.04167 26.5697 4.73333 26.5697 4.35C26.5697 4 26.6781 3.7 26.8947 3.45C27.1281 3.2 27.4531 3.075 27.8697 3.075H38.1447C38.5281 3.075 38.8364 3.2 39.0697 3.45C39.3197 3.7 39.4447 4 39.4447 4.35C39.4447 4.73333 39.3197 5.04167 39.0697 5.275C38.8364 5.50833 38.5281 5.625 38.1447 5.625H34.5697ZM44.8447 11.9V22.4C44.8447 22.8833 44.6864 23.2583 44.3697 23.525C44.0697 23.7917 43.7114 23.925 43.2947 23.925C42.8614 23.925 42.4947 23.7917 42.1947 23.525C41.9114 23.2583 41.7697 22.8833 41.7697 22.4V2.3C41.7697 1.81667 41.9114 1.44167 42.1947 1.175C42.4947 0.891666 42.8614 0.749999 43.2947 0.749999C43.7114 0.749999 44.0697 0.891666 44.3697 1.175C44.6864 1.44167 44.8447 1.81667 44.8447 2.3V9.35H47.1197C47.5031 9.35 47.8114 9.48333 48.0447 9.75C48.2781 10 48.3947 10.2917 48.3947 10.625C48.3947 10.9917 48.2781 11.3 48.0447 11.55C47.8114 11.7833 47.5031 11.9 47.1197 11.9H44.8447ZM68.8055 6.75C68.8055 8.35 68.0971 9.625 66.6805 10.575C65.2638 11.525 63.1971 12 60.4805 12C57.7805 12 55.7138 11.5333 54.2805 10.6C52.8471 9.65 52.1305 8.36667 52.1305 6.75C52.1305 5.13333 52.8471 3.85833 54.2805 2.925C55.7138 1.975 57.7805 1.5 60.4805 1.5C63.1971 1.5 65.2638 1.975 66.6805 2.925C68.0971 3.875 68.8055 5.15 68.8055 6.75ZM65.9305 16.45V22.525C65.9305 23.0083 65.7721 23.3833 65.4555 23.65C65.1555 23.9167 64.7971 24.05 64.3805 24.05C63.9471 24.05 63.5805 23.9167 63.2805 23.65C62.9805 23.3833 62.8305 23.0083 62.8305 22.525V16.45H58.1305V22.525C58.1305 23.0083 57.9721 23.3833 57.6555 23.65C57.3555 23.9167 56.9971 24.05 56.5805 24.05C56.1471 24.05 55.7805 23.9167 55.4805 23.65C55.1805 23.3833 55.0305 23.0083 55.0305 22.525V16.45H50.9305C50.5138 16.45 50.1888 16.3417 49.9555 16.125C49.7388 15.8917 49.6305 15.5833 49.6305 15.2C49.6305 14.85 49.7388 14.55 49.9555 14.3C50.1888 14.05 50.5138 13.925 50.9305 13.925H69.9305C70.3138 13.925 70.6221 14.05 70.8555 14.3C71.1055 14.55 71.2305 14.85 71.2305 15.2C71.2305 15.5833 71.1055 15.8917 70.8555 16.125C70.6221 16.3417 70.3138 16.45 69.9305 16.45H65.9305ZM60.4805 3.95C58.7638 3.95 57.4555 4.20833 56.5555 4.725C55.6721 5.225 55.2305 5.9 55.2305 6.75C55.2305 7.58333 55.6721 8.25833 56.5555 8.775C57.4555 9.29167 58.7638 9.55 60.4805 9.55C62.1971 9.55 63.4971 9.29167 64.3805 8.775C65.2638 8.25833 65.7055 7.58333 65.7055 6.75C65.7055 5.9 65.2638 5.225 64.3805 4.725C63.4971 4.20833 62.1971 3.95 60.4805 3.95ZM100.123 22.4C100.123 22.8833 99.9647 23.2583 99.648 23.525C99.348 23.7917 98.9897 23.925 98.573 23.925C98.1397 23.925 97.773 23.7917 97.473 23.525C97.1897 23.2583 97.048 22.8833 97.048 22.4V2.3C97.048 1.81667 97.1897 1.44167 97.473 1.175C97.773 0.891666 98.1397 0.749999 98.573 0.749999C98.9897 0.749999 99.348 0.891666 99.648 1.175C99.9647 1.44167 100.123 1.81667 100.123 2.3V22.4ZM87.298 16.3C88.3814 16.3 89.1647 15.8 89.648 14.8C90.1314 13.8 90.373 12.45 90.373 10.75C90.373 9.05 90.1314 7.7 89.648 6.7C89.1647 5.7 88.3814 5.2 87.298 5.2C86.2147 5.2 85.4314 5.7 84.948 6.7C84.4647 7.7 84.223 9.05 84.223 10.75C84.223 12.45 84.4647 13.8 84.948 14.8C85.4314 15.8 86.2147 16.3 87.298 16.3ZM87.298 18.925C86.198 18.925 85.2564 18.7167 84.473 18.3C83.7064 17.8833 83.073 17.3083 82.573 16.575C82.073 15.8417 81.7064 14.9833 81.473 14C81.2564 13 81.148 11.9167 81.148 10.75C81.148 9.58333 81.2564 8.50833 81.473 7.525C81.7064 6.525 82.073 5.65833 82.573 4.925C83.073 4.19167 83.7064 3.61667 84.473 3.2C85.2564 2.78333 86.198 2.575 87.298 2.575C88.398 2.575 89.3314 2.78333 90.098 3.2C90.8814 3.61667 91.523 4.19167 92.023 4.925C92.523 5.65833 92.8814 6.525 93.098 7.525C93.3314 8.50833 93.448 9.58333 93.448 10.75C93.448 11.9167 93.3314 13 93.098 14C92.8814 14.9833 92.523 15.8417 92.023 16.575C91.523 17.3083 90.8814 17.8833 90.098 18.3C89.3314 18.7167 88.398 18.925 87.298 18.925ZM110.309 18.925C109.209 18.925 108.267 18.7167 107.484 18.3C106.717 17.8833 106.084 17.3083 105.584 16.575C105.084 15.8417 104.717 14.9833 104.484 14C104.267 13 104.159 11.9167 104.159 10.75C104.159 9.58333 104.267 8.50833 104.484 7.525C104.717 6.525 105.084 5.65833 105.584 4.925C106.084 4.19167 106.717 3.61667 107.484 3.2C108.267 2.78333 109.209 2.575 110.309 2.575C111.409 2.575 112.342 2.78333 113.109 3.2C113.892 3.61667 114.534 4.19167 115.034 4.925C115.534 5.65833 115.892 6.525 116.109 7.525C116.342 8.50833 116.459 9.58333 116.459 10.75C116.459 11.9167 116.342 13 116.109 14C115.892 14.9833 115.534 15.8417 115.034 16.575C114.534 17.3083 113.892 17.8833 113.109 18.3C112.342 18.7167 111.409 18.925 110.309 18.925ZM122.384 15.8V22.4C122.384 22.8833 122.225 23.2583 121.909 23.525C121.609 23.7917 121.25 23.925 120.834 23.925C120.4 23.925 120.034 23.7917 119.734 23.525C119.45 23.2583 119.309 22.8833 119.309 22.4V2.3C119.309 1.81667 119.45 1.44167 119.734 1.175C120.034 0.891666 120.4 0.749999 120.834 0.749999C121.25 0.749999 121.609 0.891666 121.909 1.175C122.225 1.44167 122.384 1.81667 122.384 2.3V6.025H124.659C125.042 6.025 125.35 6.15833 125.584 6.425C125.817 6.675 125.934 6.96667 125.934 7.3C125.934 7.66667 125.817 7.975 125.584 8.225C125.35 8.45833 125.042 8.575 124.659 8.575H122.384V13.25H124.659C125.042 13.25 125.35 13.3833 125.584 13.65C125.817 13.9 125.934 14.1917 125.934 14.525C125.934 14.8917 125.817 15.2 125.584 15.45C125.35 15.6833 125.042 15.8 124.659 15.8H122.384ZM110.309 16.3C111.392 16.3 112.175 15.8 112.659 14.8C113.142 13.8 113.384 12.45 113.384 10.75C113.384 9.05 113.142 7.7 112.659 6.7C112.175 5.7 111.392 5.2 110.309 5.2C109.225 5.2 108.442 5.7 107.959 6.7C107.475 7.7 107.234 9.05 107.234 10.75C107.234 12.45 107.475 13.8 107.959 14.8C108.442 15.8 109.225 16.3 110.309 16.3ZM147.145 22.4C147.145 22.8833 146.986 23.2583 146.67 23.525C146.37 23.7917 146.011 23.925 145.595 23.925C145.161 23.925 144.795 23.7917 144.495 23.525C144.211 23.2583 144.07 22.8833 144.07 22.4V2.3C144.07 1.81667 144.211 1.44167 144.495 1.175C144.795 0.891666 145.161 0.749999 145.595 0.749999C146.011 0.749999 146.37 0.891666 146.67 1.175C146.986 1.44167 147.145 1.81667 147.145 2.3V22.4ZM136.62 6.8C136.67 6.51667 136.67 6.3 136.62 6.15C136.586 5.98333 136.511 5.85833 136.395 5.775C136.295 5.69167 136.17 5.64167 136.02 5.625C135.87 5.60833 135.711 5.6 135.545 5.6H130.045C129.661 5.6 129.353 5.48333 129.12 5.25C128.886 5.01667 128.77 4.71667 128.77 4.35C128.77 4.01667 128.886 3.725 129.12 3.475C129.353 3.20833 129.661 3.075 130.045 3.075H136.595C137.795 3.075 138.653 3.30833 139.17 3.775C139.686 4.225 139.911 4.925 139.845 5.875C139.528 8.775 138.553 11.3333 136.92 13.55C135.286 15.7667 133.145 17.6083 130.495 19.075C130.395 19.125 130.245 19.2 130.045 19.3C129.861 19.3833 129.653 19.4333 129.42 19.45C129.203 19.4667 128.978 19.4333 128.745 19.35C128.528 19.25 128.336 19.0417 128.17 18.725C128.036 18.475 127.986 18.25 128.02 18.05C128.053 17.85 128.12 17.6667 128.22 17.5C128.336 17.3333 128.47 17.2 128.62 17.1C128.786 16.9833 128.92 16.8917 129.02 16.825C130.003 16.2583 130.92 15.6083 131.77 14.875C132.62 14.1417 133.37 13.35 134.02 12.5C134.67 11.6333 135.22 10.725 135.67 9.775C136.12 8.80833 136.436 7.81667 136.62 6.8Z" fill="#339931"/>
<path d="M10.0002 24C16.6014 20.2809 18.2939 16.7879 18.2677 8.42361H1.73257C1.74908 16.7919 3.66886 20.1242 10.0002 24Z" fill="#9F8966"/>
<path d="M10.0435 2.03894C10.1321 2.74715 10.4293 3.72814 9.11599 3.91711C7.08109 4.04035 6.16829 1.73174 6.05699 0.842806C5.94572 -0.0461297 5.92226 0.141347 6.71069 0.02792C7.49912 -0.0855083 9.79642 0.0657894 10.0435 2.03894Z" fill="#339931"/>
<path d="M9.85106 2.65292C9.80233 3.29075 9.59276 3.79426 10.756 3.89649C12.8832 3.88138 13.2475 2.1812 13.3087 1.3806C13.3699 0.580003 13.3983 0.746464 12.7 0.685109C12.0017 0.623759 9.98693 0.875845 9.85106 2.65292Z" fill="#339931"/>
<path d="M7.40143 1.21478C8.70139 1.4302 9.22206 1.89642 9.60736 2.94894" stroke="white" stroke-opacity="0.8" stroke-width="0.5" stroke-linecap="round"/>
<path d="M12.1111 1.75629C11.27 1.99482 10.9402 2.33258 10.7092 3.03356" stroke="white" stroke-opacity="0.8" stroke-width="0.5" stroke-linecap="round"/>
<path d="M16.2459 3H3.75413C1.68078 3 0 4.76349 0 6.93887C0 9.11425 1.68078 10.8777 3.75413 10.8777H16.2459C18.3192 10.8777 20 9.11425 20 6.93887C20 4.76349 18.3192 3 16.2459 3Z" fill="#77684F"/>
<path d="M2.37167 4.30594V7.17056" stroke="#2F1E02" stroke-width="0.3"/>
<path d="M1.73257 5.38367H3.62232" stroke="#2F1E02" stroke-width="0.3"/>
<path d="M2.04755 6.45868H3.93731" stroke="#2F1E02" stroke-width="0.3"/>
<path d="M3.3165 4.84299V7.34955" stroke="#2F1E02" stroke-width="0.3"/>
<path d="M4.44156 3.94733V5.46389" stroke="#2F1E02" stroke-width="0.3"/>
<path d="M3.93716 4.43674H5.287" stroke="#2F1E02" stroke-width="0.3"/>
<path d="M4.1622 5.00543H5.51203" stroke="#2F1E02" stroke-width="0.3"/>
<path d="M5.11621 4.23166V5.55866" stroke="#2F1E02" stroke-width="0.3"/>
<path d="M3.88055 13.2318C4.19552 15.9174 4.90419 17.8868 7.10892 19.4982" stroke="white" stroke-opacity="0.6" stroke-linecap="round"/>
</svg>
