<svg width="120" height="28" viewBox="0 0 120 28" fill="none" xmlns="http://www.w3.org/2000/svg">
<path d="M30.6285 20.175C30.6285 19.475 30.8035 18.9333 31.1535 18.55C31.5202 18.1667 32.1035 17.975 32.9035 17.975H42.6785C42.9118 17.975 43.0702 17.9417 43.1535 17.875C43.2368 17.8083 43.2785 17.6917 43.2785 17.525V17.025C43.2785 16.825 43.2285 16.7 43.1285 16.65C43.0285 16.6 42.8785 16.575 42.6785 16.575H31.9035C31.5202 16.575 31.2118 16.4667 30.9785 16.25C30.7452 16.0167 30.6285 15.7167 30.6285 15.35C30.6285 15.0167 30.7452 14.725 30.9785 14.475C31.2118 14.225 31.5202 14.1 31.9035 14.1H44.0785C44.8785 14.1 45.4535 14.2917 45.8035 14.675C46.1702 15.0583 46.3535 15.6 46.3535 16.3V18.25C46.3535 18.95 46.1702 19.4917 45.8035 19.875C45.4535 20.2583 44.8785 20.45 44.0785 20.45H34.3285C34.0452 20.45 33.8702 20.4917 33.8035 20.575C33.7535 20.6583 33.7285 20.7667 33.7285 20.9V21.1C33.7285 21.4 33.8868 21.6333 34.2035 21.8C34.5368 21.9833 34.9535 22.1167 35.4535 22.2C35.9535 22.3 36.5118 22.3583 37.1285 22.375C37.7452 22.4083 38.3535 22.425 38.9535 22.425C39.3868 22.425 39.8618 22.4 40.3785 22.35C40.8952 22.3167 41.4035 22.2583 41.9035 22.175C42.4202 22.1083 42.9202 22.0167 43.4035 21.9C43.8868 21.8 44.3035 21.6833 44.6535 21.55C45.0035 21.4167 45.3702 21.3417 45.7535 21.325C46.1535 21.3083 46.4619 21.4833 46.6785 21.85C46.9119 22.2667 46.9368 22.6333 46.7535 22.95C46.5702 23.2833 46.2618 23.5417 45.8285 23.725C45.3285 23.9417 44.7785 24.125 44.1785 24.275C43.5952 24.425 42.9952 24.55 42.3785 24.65C41.7619 24.75 41.1535 24.8167 40.5535 24.85C39.9702 24.9 39.4368 24.925 38.9535 24.925C37.6535 24.925 36.4868 24.8667 35.4535 24.75C34.4202 24.6333 33.5452 24.425 32.8285 24.125C32.1118 23.8417 31.5618 23.4417 31.1785 22.925C30.8118 22.425 30.6285 21.7833 30.6285 21V20.175ZM35.3535 4.55C35.4035 5.18333 35.5452 5.76667 35.7785 6.3C36.0285 6.83333 36.3368 7.31667 36.7035 7.75C37.0868 8.18333 37.5202 8.575 38.0035 8.925C38.5035 9.25833 39.0202 9.54167 39.5535 9.775C39.6535 9.825 39.7702 9.9 39.9035 10C40.0535 10.0833 40.1785 10.2 40.2785 10.35C40.3785 10.4833 40.4452 10.65 40.4785 10.85C40.5119 11.0333 40.4785 11.2417 40.3785 11.475C40.2452 11.775 40.0785 11.9917 39.8785 12.125C39.6785 12.2417 39.4785 12.3083 39.2785 12.325C39.0785 12.3417 38.8868 12.325 38.7035 12.275C38.5369 12.225 38.4118 12.1833 38.3285 12.15C37.5285 11.8167 36.7452 11.3417 35.9785 10.725C35.2118 10.0917 34.5118 9.31667 33.8785 8.4C33.2952 9.33333 32.5952 10.1667 31.7785 10.9C30.9618 11.6167 30.0535 12.225 29.0535 12.725C28.9535 12.775 28.8118 12.8333 28.6285 12.9C28.4618 12.9667 28.2702 13 28.0535 13C27.8535 13 27.6452 12.95 27.4285 12.85C27.2285 12.75 27.0535 12.55 26.9035 12.25C26.7868 12.0167 26.7368 11.8083 26.7535 11.625C26.7702 11.4417 26.8202 11.2833 26.9035 11.15C27.0035 11.0167 27.1118 10.9083 27.2285 10.825C27.3618 10.7417 27.4702 10.675 27.5535 10.625C28.9202 9.94167 30.0118 9.10833 30.8285 8.125C31.6618 7.14167 32.1202 5.95 32.2035 4.55H28.6285C28.2118 4.55 27.8868 4.43333 27.6535 4.2C27.4368 3.96667 27.3285 3.65833 27.3285 3.275C27.3285 2.925 27.4368 2.625 27.6535 2.375C27.8868 2.125 28.2118 2 28.6285 2H38.9035C39.2868 2 39.5952 2.125 39.8285 2.375C40.0785 2.625 40.2035 2.925 40.2035 3.275C40.2035 3.65833 40.0785 3.96667 39.8285 4.2C39.5952 4.43333 39.2868 4.55 38.9035 4.55H35.3535ZM46.3535 11.575C46.3535 12.0583 46.1952 12.4333 45.8785 12.7C45.5785 12.9667 45.2202 13.1 44.8035 13.1C44.3702 13.1 44.0035 12.9667 43.7035 12.7C43.4202 12.4333 43.2785 12.0583 43.2785 11.575V2.3C43.2785 1.81667 43.4202 1.44167 43.7035 1.175C44.0035 0.891666 44.3702 0.749999 44.8035 0.749999C45.2202 0.749999 45.5785 0.891666 45.8785 1.175C46.1952 1.44167 46.3535 1.81667 46.3535 2.3V11.575ZM60.7393 10.8C59.5726 10.8 58.5059 10.7583 57.5393 10.675C56.5893 10.575 55.7643 10.375 55.0643 10.075C54.3809 9.775 53.8476 9.33333 53.4643 8.75C53.0809 8.16667 52.8893 7.38333 52.8893 6.4V3.6C52.8893 2.9 53.0643 2.35833 53.4143 1.975C53.7809 1.59167 54.3643 1.4 55.1643 1.4H66.3143C67.1143 1.4 67.6893 1.59167 68.0393 1.975C68.4059 2.35833 68.5893 2.9 68.5893 3.6V6.4C68.5893 7.38333 68.3976 8.16667 68.0143 8.75C67.6309 9.33333 67.0893 9.775 66.3893 10.075C65.7059 10.375 64.8809 10.575 63.9143 10.675C62.9643 10.7583 61.9059 10.8 60.7393 10.8ZM62.2643 14.825V18.25C62.2643 18.7333 62.1059 19.1083 61.7893 19.375C61.4893 19.6417 61.1309 19.775 60.7143 19.775C60.2809 19.775 59.9143 19.6417 59.6143 19.375C59.3143 19.1083 59.1643 18.7333 59.1643 18.25V14.825H51.1893C50.7726 14.825 50.4476 14.7167 50.2143 14.5C49.9976 14.2667 49.8893 13.9583 49.8893 13.575C49.8893 13.225 49.9976 12.925 50.2143 12.675C50.4476 12.425 50.7726 12.3 51.1893 12.3H70.1893C70.5726 12.3 70.8809 12.425 71.1143 12.675C71.3643 12.925 71.4893 13.225 71.4893 13.575C71.4893 13.9583 71.3643 14.2667 71.1143 14.5C70.8809 14.7167 70.5726 14.825 70.1893 14.825H62.2643ZM52.7643 17.925C52.7643 17.4417 52.9143 17.0667 53.2143 16.8C53.5309 16.5333 53.8976 16.4 54.3143 16.4C54.7476 16.4 55.1143 16.5333 55.4143 16.8C55.7143 17.0667 55.8643 17.4417 55.8643 17.925V19.125C55.8643 19.9083 56.0059 20.5167 56.2893 20.95C56.5726 21.4 56.9476 21.725 57.4143 21.925C57.8976 22.1417 58.4476 22.275 59.0643 22.325C59.6809 22.375 60.3143 22.4 60.9643 22.4C61.4476 22.4 61.9559 22.3583 62.4893 22.275C63.0226 22.2083 63.5476 22.1167 64.0643 22C64.5809 21.9 65.0559 21.775 65.4893 21.625C65.9393 21.4917 66.3143 21.35 66.6143 21.2C66.9643 21.0333 67.3309 20.95 67.7143 20.95C68.0976 20.9667 68.3809 21.1667 68.5643 21.55C68.7643 21.9833 68.7726 22.35 68.5893 22.65C68.4226 22.9667 68.1226 23.2333 67.6893 23.45C67.1893 23.7 66.6476 23.9167 66.0643 24.1C65.4976 24.2833 64.9143 24.4333 64.3143 24.55C63.7143 24.6833 63.1226 24.775 62.5393 24.825C61.9726 24.8917 61.4476 24.925 60.9643 24.925C59.7809 24.925 58.6893 24.8417 57.6893 24.675C56.6893 24.525 55.8226 24.25 55.0893 23.85C54.3559 23.4667 53.7809 22.9333 53.3643 22.25C52.9643 21.5667 52.7643 20.7 52.7643 19.65V17.925ZM60.7393 8.325C61.5059 8.325 62.1809 8.30833 62.7643 8.275C63.3643 8.24167 63.8643 8.15 64.2643 8C64.6643 7.85 64.9643 7.63333 65.1643 7.35C65.3809 7.05 65.4893 6.64167 65.4893 6.125V4.9C65.4893 4.55 65.4226 4.3 65.2893 4.15C65.1559 4 64.9226 3.925 64.5893 3.925H56.8893C56.5559 3.925 56.3226 4 56.1893 4.15C56.0559 4.3 55.9893 4.55 55.9893 4.9V6.1C55.9893 6.63333 56.0893 7.05 56.2893 7.35C56.5059 7.63333 56.8143 7.85 57.2143 8C57.6143 8.15 58.1059 8.24167 58.6893 8.275C59.2893 8.30833 59.9726 8.325 60.7393 8.325ZM93.9 22.475C93.9 22.9583 93.75 23.3333 93.45 23.6C93.1667 23.8667 92.8167 24 92.4 24C91.9667 24 91.6 23.8667 91.3 23.6C91.0167 23.3333 90.875 22.9583 90.875 22.475V11.9H89.175V21.325C89.175 21.8083 89.025 22.1833 88.725 22.45C88.4417 22.7167 88.0917 22.85 87.675 22.85C87.2417 22.85 86.8833 22.7167 86.6 22.45C86.3167 22.1833 86.175 21.8083 86.175 21.325V2.8C86.175 2.31667 86.3167 1.94167 86.6 1.675C86.8833 1.39167 87.2417 1.25 87.675 1.25C88.0917 1.25 88.4417 1.39167 88.725 1.675C89.025 1.94167 89.175 2.31667 89.175 2.8V9.375H90.875V2.3C90.875 1.81667 91.0167 1.44167 91.3 1.175C91.6 0.891666 91.9667 0.749999 92.4 0.749999C92.8167 0.749999 93.1667 0.891666 93.45 1.175C93.75 1.44167 93.9 1.81667 93.9 2.3V22.475ZM74.15 13.925C74.15 13.1583 74.2583 12.4417 74.475 11.775C74.7083 11.0917 75.0333 10.5083 75.45 10.025C75.8833 9.54167 76.4167 9.15833 77.05 8.875C77.6833 8.59167 78.4167 8.45 79.25 8.45C80.0833 8.45 80.8167 8.59167 81.45 8.875C82.0833 9.14167 82.6167 9.525 83.05 10.025C83.4833 10.5083 83.8083 11.0833 84.025 11.75C84.2417 12.4167 84.35 13.1417 84.35 13.925C84.35 14.7083 84.2417 15.4333 84.025 16.1C83.8083 16.7667 83.4833 17.35 83.05 17.85C82.6167 18.3333 82.0833 18.7167 81.45 19C80.8167 19.2667 80.0833 19.4 79.25 19.4C78.4167 19.4 77.6833 19.2583 77.05 18.975C76.4167 18.6917 75.8833 18.3083 75.45 17.825C75.0333 17.3417 74.7083 16.7667 74.475 16.1C74.2583 15.4333 74.15 14.7083 74.15 13.925ZM74.675 6.9C74.2583 6.9 73.9333 6.78333 73.7 6.55C73.4667 6.31667 73.35 6.01667 73.35 5.65C73.35 5.3 73.4667 5 73.7 4.75C73.9333 4.48333 74.2583 4.35 74.675 4.35H77.725V2.075C77.725 1.59167 77.8667 1.21667 78.15 0.949999C78.45 0.666666 78.8167 0.524999 79.25 0.524999C79.6667 0.524999 80.025 0.666666 80.325 0.949999C80.6417 1.21667 80.8 1.59167 80.8 2.075V4.35H83.85C84.25 4.35 84.5667 4.48333 84.8 4.75C85.0333 5 85.15 5.3 85.15 5.65C85.15 6.01667 85.0333 6.31667 84.8 6.55C84.5667 6.78333 84.25 6.9 83.85 6.9H74.675ZM81.325 13.925C81.325 13.025 81.15 12.3083 80.8 11.775C80.4667 11.2417 79.95 10.975 79.25 10.975C78.5667 10.975 78.05 11.2417 77.7 11.775C77.35 12.3083 77.175 13.0167 77.175 13.9C77.175 14.8 77.35 15.525 77.7 16.075C78.05 16.6083 78.5667 16.875 79.25 16.875C79.95 16.875 80.4667 16.6083 80.8 16.075C81.15 15.5417 81.325 14.825 81.325 13.925ZM116.086 8.2C116.086 9.1 115.902 9.925 115.536 10.675C115.169 11.4083 114.627 12.05 113.911 12.6C113.211 13.1333 112.344 13.55 111.311 13.85C110.277 14.1333 109.094 14.275 107.761 14.275C106.427 14.275 105.244 14.1333 104.211 13.85C103.177 13.55 102.302 13.1333 101.586 12.6C100.886 12.05 100.344 11.4083 99.9607 10.675C99.5941 9.925 99.4107 9.1 99.4107 8.2C99.4107 7.3 99.5941 6.48333 99.9607 5.75C100.344 5 100.886 4.35833 101.586 3.825C102.302 3.275 103.177 2.85833 104.211 2.575C105.244 2.275 106.427 2.125 107.761 2.125C109.094 2.125 110.277 2.275 111.311 2.575C112.344 2.85833 113.211 3.275 113.911 3.825C114.627 4.35833 115.169 5 115.536 5.75C115.902 6.48333 116.086 7.3 116.086 8.2ZM98.2107 20.925C97.7941 20.925 97.4691 20.8083 97.2357 20.575C97.0191 20.3583 96.9107 20.0583 96.9107 19.675C96.9107 19.325 97.0191 19.025 97.2357 18.775C97.4691 18.525 97.7941 18.4 98.2107 18.4H102.561V16.025C102.561 15.5417 102.702 15.1667 102.986 14.9C103.286 14.6167 103.652 14.475 104.086 14.475C104.502 14.475 104.869 14.6167 105.186 14.9C105.502 15.1667 105.661 15.5417 105.661 16.025V18.4H109.861V16.025C109.861 15.5417 110.002 15.1667 110.286 14.9C110.586 14.6167 110.952 14.475 111.386 14.475C111.802 14.475 112.169 14.6167 112.486 14.9C112.802 15.1667 112.961 15.5417 112.961 16.025V18.4H117.211C117.594 18.4 117.902 18.525 118.136 18.775C118.386 19.025 118.511 19.325 118.511 19.675C118.511 20.0583 118.386 20.3583 118.136 20.575C117.902 20.8083 117.594 20.925 117.211 20.925H98.2107ZM107.761 4.575C106.077 4.575 104.777 4.89167 103.861 5.525C102.961 6.14167 102.511 7.03333 102.511 8.2C102.511 9.35 102.961 10.2417 103.861 10.875C104.777 11.5083 106.077 11.825 107.761 11.825C109.427 11.825 110.711 11.5083 111.611 10.875C112.527 10.2417 112.986 9.35 112.986 8.2C112.986 7.03333 112.527 6.14167 111.611 5.525C110.711 4.89167 109.427 4.575 107.761 4.575Z" fill="#339931"/>
<path d="M10.0002 25C16.6014 21.2809 18.2939 17.7879 18.2677 9.42361H1.73258C1.74909 17.7919 3.66887 21.1242 10.0002 25Z" fill="#9F8966"/>
<path d="M10.0435 3.03894C10.1321 3.74715 10.4293 4.72814 9.11599 4.91711C7.08109 5.04035 6.16829 2.73174 6.05699 1.84281C5.94572 0.95387 5.92226 1.14135 6.71069 1.02792C7.49912 0.914492 9.79642 1.06579 10.0435 3.03894Z" fill="#339931"/>
<path d="M9.85105 3.65292C9.80232 4.29075 9.59275 4.79426 10.756 4.89649C12.8832 4.88138 13.2475 3.1812 13.3087 2.3806C13.3699 1.58 13.3983 1.74646 12.7 1.68511C12.0017 1.62376 9.98692 1.87585 9.85105 3.65292Z" fill="#339931"/>
<path d="M7.40142 2.21478C8.70139 2.4302 9.22205 2.89642 9.60735 3.94894" stroke="white" stroke-opacity="0.8" stroke-width="0.5" stroke-linecap="round"/>
<path d="M12.1111 2.75629C11.27 2.99482 10.9402 3.33258 10.7092 4.03356" stroke="white" stroke-opacity="0.8" stroke-width="0.5" stroke-linecap="round"/>
<path d="M16.2459 4H3.75413C1.68078 4 0 5.76349 0 7.93887C0 10.1143 1.68078 11.8777 3.75413 11.8777H16.2459C18.3192 11.8777 20 10.1143 20 7.93887C20 5.76349 18.3192 4 16.2459 4Z" fill="#77684F"/>
<path d="M2.37167 5.30594V8.17056" stroke="#2F1E02" stroke-width="0.3"/>
<path d="M1.73258 6.38367H3.62233" stroke="#2F1E02" stroke-width="0.3"/>
<path d="M2.04753 7.45868H3.9373" stroke="#2F1E02" stroke-width="0.3"/>
<path d="M3.3165 5.84299V8.34955" stroke="#2F1E02" stroke-width="0.3"/>
<path d="M4.44157 4.94733V6.46389" stroke="#2F1E02" stroke-width="0.3"/>
<path d="M3.93716 5.43674H5.287" stroke="#2F1E02" stroke-width="0.3"/>
<path d="M4.1622 6.00543H5.51203" stroke="#2F1E02" stroke-width="0.3"/>
<path d="M5.1162 5.23166V6.55866" stroke="#2F1E02" stroke-width="0.3"/>
<path d="M3.88057 14.2318C4.19554 16.9174 4.9042 18.8868 7.10894 20.4982" stroke="white" stroke-opacity="0.6" stroke-linecap="round"/>
</svg>
