<svg width="120" height="28" viewBox="0 0 120 28" fill="none" xmlns="http://www.w3.org/2000/svg">
<path d="M37.3785 24.925C36.2118 24.925 35.1535 24.85 34.2035 24.7C33.2535 24.5667 32.4368 24.3167 31.7535 23.95C31.0868 23.5833 30.5702 23.0833 30.2035 22.45C29.8368 21.8167 29.6535 21.0083 29.6535 20.025V18.3C29.6535 17.6 29.8285 17.0583 30.1785 16.675C30.5452 16.2917 31.1285 16.1 31.9285 16.1H42.8285C43.6285 16.1 44.2035 16.2917 44.5535 16.675C44.9202 17.0583 45.1035 17.6 45.1035 18.3V20.025C45.1035 21.0083 44.9202 21.8167 44.5535 22.45C44.1868 23.0833 43.6619 23.5833 42.9785 23.95C42.3118 24.3167 41.5035 24.5667 40.5535 24.7C39.6035 24.85 38.5452 24.925 37.3785 24.925ZM27.9785 10.875C27.9785 10.3583 28.0785 9.84167 28.2785 9.325C28.4785 8.79167 28.7952 8.31667 29.2285 7.9C29.6618 7.46667 30.2035 7.125 30.8535 6.875C31.5202 6.60833 32.3202 6.475 33.2535 6.475C34.1868 6.475 34.9868 6.60833 35.6535 6.875C36.3202 7.125 36.8702 7.45833 37.3035 7.875C37.7368 8.29167 38.0535 8.76667 38.2535 9.3C38.4535 9.81667 38.5535 10.3417 38.5535 10.875C38.5535 11.4083 38.4535 11.9417 38.2535 12.475C38.0535 12.9917 37.7368 13.4583 37.3035 13.875C36.8702 14.2917 36.3202 14.6333 35.6535 14.9C34.9868 15.15 34.1868 15.275 33.2535 15.275C32.3202 15.275 31.5202 15.15 30.8535 14.9C30.2035 14.6333 29.6618 14.2917 29.2285 13.875C28.7952 13.4417 28.4785 12.9667 28.2785 12.45C28.0785 11.9333 27.9785 11.4083 27.9785 10.875ZM45.1035 9.4V13.675C45.1035 14.1583 44.9452 14.5333 44.6285 14.8C44.3285 15.0667 43.9702 15.2 43.5535 15.2C43.1202 15.2 42.7535 15.0667 42.4535 14.8C42.1702 14.5333 42.0285 14.1583 42.0285 13.675V2.3C42.0285 1.81667 42.1702 1.44167 42.4535 1.175C42.7535 0.891666 43.1202 0.749999 43.5535 0.749999C43.9702 0.749999 44.3285 0.891666 44.6285 1.175C44.9452 1.44167 45.1035 1.81667 45.1035 2.3V6.875H47.3785C47.7619 6.875 48.0702 7.00833 48.3035 7.275C48.5369 7.525 48.6535 7.81667 48.6535 8.15C48.6535 8.51667 48.5369 8.81667 48.3035 9.05C48.0702 9.28333 47.7619 9.4 47.3785 9.4H45.1035ZM27.6285 5.725C27.2118 5.725 26.8868 5.60833 26.6535 5.375C26.4202 5.14167 26.3035 4.84167 26.3035 4.475C26.3035 4.125 26.4202 3.825 26.6535 3.575C26.8868 3.30833 27.2118 3.175 27.6285 3.175H31.8035V1.9C31.8035 1.41667 31.9452 1.04167 32.2285 0.774999C32.5285 0.491666 32.8952 0.35 33.3285 0.35C33.7452 0.35 34.1035 0.491666 34.4035 0.774999C34.7202 1.04167 34.8785 1.41667 34.8785 1.9V3.175H39.0535C39.4535 3.175 39.7702 3.30833 40.0035 3.575C40.2368 3.825 40.3535 4.125 40.3535 4.475C40.3535 4.84167 40.2368 5.14167 40.0035 5.375C39.7702 5.60833 39.4535 5.725 39.0535 5.725H27.6285ZM37.3785 22.45C38.1452 22.45 38.8202 22.425 39.4035 22.375C39.9868 22.3417 40.4702 22.2417 40.8535 22.075C41.2535 21.9083 41.5535 21.65 41.7535 21.3C41.9535 20.9667 42.0535 20.4917 42.0535 19.875V19.5C42.0535 19.15 41.9869 18.9 41.8535 18.75C41.7202 18.6 41.4868 18.525 41.1535 18.525H33.6035C33.2702 18.525 33.0368 18.6 32.9035 18.75C32.7702 18.9 32.7035 19.15 32.7035 19.5V19.875C32.7035 20.4917 32.8035 20.9667 33.0035 21.3C33.2035 21.65 33.4952 21.9083 33.8785 22.075C34.2785 22.2417 34.7702 22.3417 35.3535 22.375C35.9368 22.425 36.6118 22.45 37.3785 22.45ZM35.6035 10.875C35.6035 10.6417 35.5618 10.4083 35.4785 10.175C35.3952 9.925 35.2618 9.70833 35.0785 9.525C34.8952 9.325 34.6535 9.16667 34.3535 9.05C34.0535 8.93333 33.6868 8.875 33.2535 8.875C32.8535 8.875 32.5035 8.93333 32.2035 9.05C31.9202 9.16667 31.6785 9.325 31.4785 9.525C31.2952 9.70833 31.1535 9.91667 31.0535 10.15C30.9702 10.3833 30.9285 10.6167 30.9285 10.85C30.9285 11.1 30.9702 11.35 31.0535 11.6C31.1535 11.8333 31.2952 12.05 31.4785 12.25C31.6785 12.4333 31.9202 12.5833 32.2035 12.7C32.5035 12.8167 32.8535 12.875 33.2535 12.875C33.6868 12.875 34.0535 12.8167 34.3535 12.7C34.6535 12.5833 34.8952 12.4333 35.0785 12.25C35.2618 12.05 35.3952 11.8333 35.4785 11.6C35.5618 11.35 35.6035 11.1083 35.6035 10.875ZM58.2393 6.575C58.2559 6.175 58.2309 5.91667 58.1643 5.8C58.0976 5.66667 57.9309 5.6 57.6643 5.6H57.5143C57.1309 5.6 56.8226 5.48333 56.5893 5.25C56.3559 5.01667 56.2393 4.71667 56.2393 4.35C56.2393 4.01667 56.3559 3.725 56.5893 3.475C56.8226 3.20833 57.1309 3.075 57.5143 3.075H58.8643C59.8143 3.075 60.4476 3.24167 60.7643 3.575C61.0976 3.89167 61.2643 4.39167 61.2643 5.075C61.2643 5.775 61.2393 6.48333 61.1893 7.2C61.1393 7.91667 61.0726 8.64167 60.9893 9.375H62.9143V2.8C62.9143 2.31667 63.0559 1.94167 63.3393 1.675C63.6226 1.39167 63.9809 1.25 64.4143 1.25C64.8309 1.25 65.1809 1.39167 65.4643 1.675C65.7643 1.94167 65.9143 2.31667 65.9143 2.8V21.325C65.9143 21.8083 65.7643 22.1833 65.4643 22.45C65.1809 22.7167 64.8309 22.85 64.4143 22.85C63.9809 22.85 63.6226 22.7167 63.3393 22.45C63.0559 22.1833 62.9143 21.8083 62.9143 21.325V11.9H60.5393C60.2559 13.1667 59.8726 14.4167 59.3893 15.65C58.9226 16.8667 58.3226 18.0417 57.5893 19.175C57.5226 19.275 57.4309 19.3917 57.3143 19.525C57.1976 19.6583 57.0476 19.775 56.8643 19.875C56.6809 19.9583 56.4726 20 56.2393 20C56.0059 20.0167 55.7476 19.9417 55.4643 19.775C55.1809 19.6083 54.9893 19.425 54.8893 19.225C54.8059 19.025 54.7726 18.825 54.7893 18.625C54.8059 18.425 54.8559 18.2417 54.9393 18.075C55.0226 17.8917 55.0893 17.7583 55.1393 17.675C55.6893 16.825 56.1559 15.9333 56.5393 15C56.9226 14.05 57.2393 13.0917 57.4893 12.125C57.7393 11.1583 57.9226 10.2083 58.0393 9.275C58.1559 8.325 58.2226 7.425 58.2393 6.575ZM70.3893 22.475C70.3893 22.9583 70.2393 23.3333 69.9393 23.6C69.6559 23.8667 69.3059 24 68.8893 24C68.4559 24 68.0893 23.8667 67.7893 23.6C67.5059 23.3333 67.3643 22.9583 67.3643 22.475V2.3C67.3643 1.81667 67.5059 1.44167 67.7893 1.175C68.0893 0.891666 68.4559 0.749999 68.8893 0.749999C69.3059 0.749999 69.6559 0.891666 69.9393 1.175C70.2393 1.44167 70.3893 1.81667 70.3893 2.3V22.475ZM52.7893 6.55C52.8226 6.11667 52.7809 5.85 52.6643 5.75C52.5476 5.65 52.3059 5.6 51.9393 5.6H51.3893C51.0059 5.6 50.6976 5.48333 50.4643 5.25C50.2309 5.01667 50.1143 4.71667 50.1143 4.35C50.1143 4.01667 50.2309 3.725 50.4643 3.475C50.6976 3.20833 51.0059 3.075 51.3893 3.075H53.3143C53.8309 3.075 54.2476 3.125 54.5643 3.225C54.8809 3.30833 55.1309 3.44167 55.3143 3.625C55.4976 3.79167 55.6143 4.01667 55.6643 4.3C55.7309 4.56667 55.7559 4.88333 55.7393 5.25C55.6559 7.71667 55.3059 9.95 54.6893 11.95C54.0726 13.9333 53.1643 15.7583 51.9643 17.425C51.9143 17.5083 51.8143 17.6083 51.6643 17.725C51.5309 17.8417 51.3726 17.9333 51.1893 18C51.0059 18.0667 50.7976 18.0917 50.5643 18.075C50.3309 18.0583 50.0976 17.9583 49.8643 17.775C49.6476 17.6083 49.5059 17.4333 49.4393 17.25C49.3726 17.05 49.3476 16.8667 49.3643 16.7C49.3809 16.5167 49.4226 16.35 49.4893 16.2C49.5559 16.05 49.6143 15.9333 49.6643 15.85C50.6809 14.4333 51.4226 12.9167 51.8893 11.3C52.3559 9.68333 52.6559 8.1 52.7893 6.55ZM93.9 22.475C93.9 22.9583 93.75 23.3333 93.45 23.6C93.1667 23.8667 92.8167 24 92.4 24C91.9667 24 91.6 23.8667 91.3 23.6C91.0167 23.3333 90.875 22.9583 90.875 22.475V11.9H89.175V21.325C89.175 21.8083 89.025 22.1833 88.725 22.45C88.4417 22.7167 88.0917 22.85 87.675 22.85C87.2417 22.85 86.8833 22.7167 86.6 22.45C86.3167 22.1833 86.175 21.8083 86.175 21.325V2.8C86.175 2.31667 86.3167 1.94167 86.6 1.675C86.8833 1.39167 87.2417 1.25 87.675 1.25C88.0917 1.25 88.4417 1.39167 88.725 1.675C89.025 1.94167 89.175 2.31667 89.175 2.8V9.375H90.875V2.3C90.875 1.81667 91.0167 1.44167 91.3 1.175C91.6 0.891666 91.9667 0.749999 92.4 0.749999C92.8167 0.749999 93.1667 0.891666 93.45 1.175C93.75 1.44167 93.9 1.81667 93.9 2.3V22.475ZM74.15 13.925C74.15 13.1583 74.2583 12.4417 74.475 11.775C74.7083 11.0917 75.0333 10.5083 75.45 10.025C75.8833 9.54167 76.4167 9.15833 77.05 8.875C77.6833 8.59167 78.4167 8.45 79.25 8.45C80.0833 8.45 80.8167 8.59167 81.45 8.875C82.0833 9.14167 82.6167 9.525 83.05 10.025C83.4833 10.5083 83.8083 11.0833 84.025 11.75C84.2417 12.4167 84.35 13.1417 84.35 13.925C84.35 14.7083 84.2417 15.4333 84.025 16.1C83.8083 16.7667 83.4833 17.35 83.05 17.85C82.6167 18.3333 82.0833 18.7167 81.45 19C80.8167 19.2667 80.0833 19.4 79.25 19.4C78.4167 19.4 77.6833 19.2583 77.05 18.975C76.4167 18.6917 75.8833 18.3083 75.45 17.825C75.0333 17.3417 74.7083 16.7667 74.475 16.1C74.2583 15.4333 74.15 14.7083 74.15 13.925ZM74.675 6.9C74.2583 6.9 73.9333 6.78333 73.7 6.55C73.4667 6.31667 73.35 6.01667 73.35 5.65C73.35 5.3 73.4667 5 73.7 4.75C73.9333 4.48333 74.2583 4.35 74.675 4.35H77.725V2.075C77.725 1.59167 77.8667 1.21667 78.15 0.949999C78.45 0.666666 78.8167 0.524999 79.25 0.524999C79.6667 0.524999 80.025 0.666666 80.325 0.949999C80.6417 1.21667 80.8 1.59167 80.8 2.075V4.35H83.85C84.25 4.35 84.5667 4.48333 84.8 4.75C85.0333 5 85.15 5.3 85.15 5.65C85.15 6.01667 85.0333 6.31667 84.8 6.55C84.5667 6.78333 84.25 6.9 83.85 6.9H74.675ZM81.325 13.925C81.325 13.025 81.15 12.3083 80.8 11.775C80.4667 11.2417 79.95 10.975 79.25 10.975C78.5667 10.975 78.05 11.2417 77.7 11.775C77.35 12.3083 77.175 13.0167 77.175 13.9C77.175 14.8 77.35 15.525 77.7 16.075C78.05 16.6083 78.5667 16.875 79.25 16.875C79.95 16.875 80.4667 16.6083 80.8 16.075C81.15 15.5417 81.325 14.825 81.325 13.925ZM116.086 8.2C116.086 9.1 115.902 9.925 115.536 10.675C115.169 11.4083 114.627 12.05 113.911 12.6C113.211 13.1333 112.344 13.55 111.311 13.85C110.277 14.1333 109.094 14.275 107.761 14.275C106.427 14.275 105.244 14.1333 104.211 13.85C103.177 13.55 102.302 13.1333 101.586 12.6C100.886 12.05 100.344 11.4083 99.9607 10.675C99.5941 9.925 99.4107 9.1 99.4107 8.2C99.4107 7.3 99.5941 6.48333 99.9607 5.75C100.344 5 100.886 4.35833 101.586 3.825C102.302 3.275 103.177 2.85833 104.211 2.575C105.244 2.275 106.427 2.125 107.761 2.125C109.094 2.125 110.277 2.275 111.311 2.575C112.344 2.85833 113.211 3.275 113.911 3.825C114.627 4.35833 115.169 5 115.536 5.75C115.902 6.48333 116.086 7.3 116.086 8.2ZM98.2107 20.925C97.7941 20.925 97.4691 20.8083 97.2357 20.575C97.0191 20.3583 96.9107 20.0583 96.9107 19.675C96.9107 19.325 97.0191 19.025 97.2357 18.775C97.4691 18.525 97.7941 18.4 98.2107 18.4H102.561V16.025C102.561 15.5417 102.702 15.1667 102.986 14.9C103.286 14.6167 103.652 14.475 104.086 14.475C104.502 14.475 104.869 14.6167 105.186 14.9C105.502 15.1667 105.661 15.5417 105.661 16.025V18.4H109.861V16.025C109.861 15.5417 110.002 15.1667 110.286 14.9C110.586 14.6167 110.952 14.475 111.386 14.475C111.802 14.475 112.169 14.6167 112.486 14.9C112.802 15.1667 112.961 15.5417 112.961 16.025V18.4H117.211C117.594 18.4 117.902 18.525 118.136 18.775C118.386 19.025 118.511 19.325 118.511 19.675C118.511 20.0583 118.386 20.3583 118.136 20.575C117.902 20.8083 117.594 20.925 117.211 20.925H98.2107ZM107.761 4.575C106.077 4.575 104.777 4.89167 103.861 5.525C102.961 6.14167 102.511 7.03333 102.511 8.2C102.511 9.35 102.961 10.2417 103.861 10.875C104.777 11.5083 106.077 11.825 107.761 11.825C109.427 11.825 110.711 11.5083 111.611 10.875C112.527 10.2417 112.986 9.35 112.986 8.2C112.986 7.03333 112.527 6.14167 111.611 5.525C110.711 4.89167 109.427 4.575 107.761 4.575Z" fill="#339931"/>
<path d="M10.0002 25C16.6014 21.2809 18.2939 17.7879 18.2677 9.42361H1.73258C1.74909 17.7919 3.66887 21.1242 10.0002 25Z" fill="#9F8966"/>
<path d="M10.0435 3.03894C10.1321 3.74715 10.4293 4.72814 9.11599 4.91711C7.08109 5.04035 6.16829 2.73174 6.05699 1.84281C5.94572 0.95387 5.92226 1.14135 6.71069 1.02792C7.49912 0.914492 9.79642 1.06579 10.0435 3.03894Z" fill="#339931"/>
<path d="M9.85105 3.65292C9.80232 4.29075 9.59275 4.79426 10.756 4.89649C12.8832 4.88138 13.2475 3.1812 13.3087 2.3806C13.3699 1.58 13.3983 1.74646 12.7 1.68511C12.0017 1.62376 9.98692 1.87585 9.85105 3.65292Z" fill="#339931"/>
<path d="M7.40142 2.21478C8.70139 2.4302 9.22205 2.89642 9.60735 3.94894" stroke="white" stroke-opacity="0.8" stroke-width="0.5" stroke-linecap="round"/>
<path d="M12.1111 2.75629C11.27 2.99482 10.9402 3.33258 10.7092 4.03356" stroke="white" stroke-opacity="0.8" stroke-width="0.5" stroke-linecap="round"/>
<path d="M16.2459 4H3.75413C1.68078 4 0 5.76349 0 7.93887C0 10.1143 1.68078 11.8777 3.75413 11.8777H16.2459C18.3192 11.8777 20 10.1143 20 7.93887C20 5.76349 18.3192 4 16.2459 4Z" fill="#77684F"/>
<path d="M2.37167 5.30594V8.17056" stroke="#2F1E02" stroke-width="0.3"/>
<path d="M1.73258 6.38367H3.62233" stroke="#2F1E02" stroke-width="0.3"/>
<path d="M2.04753 7.45868H3.9373" stroke="#2F1E02" stroke-width="0.3"/>
<path d="M3.3165 5.84299V8.34955" stroke="#2F1E02" stroke-width="0.3"/>
<path d="M4.44157 4.94733V6.46389" stroke="#2F1E02" stroke-width="0.3"/>
<path d="M3.93716 5.43674H5.287" stroke="#2F1E02" stroke-width="0.3"/>
<path d="M4.1622 6.00543H5.51203" stroke="#2F1E02" stroke-width="0.3"/>
<path d="M5.1162 5.23166V6.55866" stroke="#2F1E02" stroke-width="0.3"/>
<path d="M3.88057 14.2318C4.19554 16.9174 4.9042 18.8868 7.10894 20.4982" stroke="white" stroke-opacity="0.6" stroke-linecap="round"/>
</svg>
