<svg width="135" height="55" viewBox="0 0 135 55" fill="none" xmlns="http://www.w3.org/2000/svg">
<path d="M47.8 9.4C47.8 8 48.15 6.91666 48.85 6.15C49.5833 5.38333 50.75 5 52.35 5H76.45C77.2167 5 77.8333 5.25 78.3 5.75C78.7667 6.25 79 6.83333 79 7.5C79 8.23333 78.7667 8.85 78.3 9.35C77.8333 9.81666 77.2167 10.05 76.45 10.05H55.8C55.1333 10.05 54.6667 10.2 54.4 10.5C54.1333 10.8 54 11.3 54 12V14.95H75.9C76.6667 14.95 77.2833 15.2 77.75 15.7C78.2167 16.2 78.45 16.7833 78.45 17.45C78.45 18.1833 78.2167 18.8 77.75 19.3C77.2833 19.7667 76.6667 20 75.9 20H54C54.0333 21.5 54.3167 22.6833 54.85 23.55C55.4167 24.3833 56.15 25.0167 57.05 25.45C57.9833 25.85 59.0333 26.1 60.2 26.2C61.4 26.3 62.65 26.35 63.95 26.35C64.9167 26.35 65.9167 26.2833 66.95 26.15C68.0167 25.9833 69.0333 25.8 70 25.6C71 25.3667 71.9333 25.1167 72.8 24.85C73.6667 24.55 74.4 24.25 75 23.95C75.7 23.6167 76.4333 23.4667 77.2 23.5C77.9667 23.5 78.5333 23.8833 78.9 24.65C79.3 25.5167 79.3167 26.2667 78.95 26.9C78.6167 27.5 78.0167 28.0167 77.15 28.45C75.5833 29.2167 73.8667 29.8333 72 30.3C70.1333 30.7667 68.3333 31.0833 66.6 31.25V36.8H82.4C83.1667 36.8 83.7833 37.05 84.25 37.55C84.75 38.05 85 38.65 85 39.35C85 40.1167 84.75 40.7167 84.25 41.15C83.7833 41.6167 83.1667 41.85 82.4 41.85H44.4C43.5667 41.85 42.9167 41.6167 42.45 41.15C42.0167 40.7167 41.8 40.1167 41.8 39.35C41.8 38.65 42.0167 38.05 42.45 37.55C42.9167 37.05 43.5667 36.8 44.4 36.8H60.4V31.3C58.5 31.1667 56.7667 30.9 55.2 30.5C53.6667 30.0667 52.35 29.45 51.25 28.65C50.15 27.8167 49.3 26.7667 48.7 25.5C48.1 24.2333 47.8 22.6833 47.8 20.85V9.4ZM128.771 44.8C128.771 45.7667 128.455 46.5167 127.821 47.05C127.221 47.5833 126.505 47.85 125.671 47.85C124.805 47.85 124.071 47.5833 123.471 47.05C122.905 46.5167 122.621 45.7667 122.621 44.8V4.6C122.621 3.63333 122.905 2.88333 123.471 2.35C124.071 1.78333 124.805 1.5 125.671 1.5C126.505 1.5 127.221 1.78333 127.821 2.35C128.455 2.88333 128.771 3.63333 128.771 4.6V44.8ZM97.5215 27.5C97.5215 29.1 98.0882 30.2167 99.2215 30.85C100.355 31.4833 102.171 31.7833 104.671 31.75C106.271 31.7167 107.738 31.5833 109.071 31.35C110.438 31.0833 111.721 30.7167 112.921 30.25C113.755 29.95 114.505 29.9 115.171 30.1C115.871 30.2667 116.321 30.65 116.521 31.25C116.888 32.3167 116.855 33.15 116.421 33.75C116.021 34.3167 115.388 34.7833 114.521 35.15C113.121 35.7167 111.588 36.1833 109.921 36.55C108.255 36.9167 106.505 37.1 104.671 37.1C102.805 37.1 101.055 37 99.4215 36.8C97.8215 36.5667 96.4215 36.1167 95.2215 35.45C94.0215 34.75 93.0715 33.7667 92.3715 32.5C91.6715 31.2 91.3215 29.4667 91.3215 27.3V22.85C91.3215 21.45 91.6715 20.3667 92.3715 19.6C93.1048 18.8333 94.2715 18.45 95.8715 18.45H106.971C107.438 18.45 107.755 18.3833 107.921 18.25C108.088 18.1167 108.171 17.8833 108.171 17.55V11.9C108.171 11.5 108.071 11.25 107.871 11.15C107.671 11.05 107.371 11 106.971 11H93.7715C93.0048 11 92.3882 10.7667 91.9215 10.3C91.4548 9.83333 91.2215 9.23333 91.2215 8.5C91.2215 7.83333 91.4548 7.23333 91.9215 6.7C92.3882 6.16667 93.0048 5.9 93.7715 5.9H109.871C111.471 5.9 112.621 6.28333 113.321 7.05C114.055 7.81666 114.421 8.9 114.421 10.3V19.15C114.421 20.55 114.055 21.6333 113.321 22.4C112.621 23.1667 111.471 23.55 109.871 23.55H98.7215C98.2548 23.55 97.9382 23.65 97.7715 23.85C97.6048 24.0167 97.5215 24.3833 97.5215 24.95V27.5Z" fill="#339931"/>
<path d="M17.885 11.7539C18.1492 13.6961 19.0349 16.3865 15.1211 16.9047C9.05706 17.2428 6.33684 10.9114 6.0052 8.47346C5.67357 6.03555 5.60366 6.54971 7.95323 6.23863C10.3028 5.92755 17.1489 6.34248 17.885 11.7539Z" fill="#339931"/>
<path d="M17.3112 13.4362C17.1659 15.1854 16.5415 16.5664 20.0078 16.8467C26.3472 16.8053 27.4327 12.1425 27.6152 9.94686C27.7976 7.75122 27.8821 8.20774 25.8012 8.03947C23.7202 7.87121 17.7161 8.56256 17.3112 13.4362Z" fill="#339931"/>
<rect x="17.0659" y="15.4268" width="1.55555" height="9.59144" rx="0.777777" fill="#339931"/>
<path d="M10.0122 9.49515C13.8861 10.0859 15.4377 11.3645 16.5859 14.2511" stroke="white" stroke-opacity="0.8" stroke-linecap="round"/>
<path d="M24.0467 10.9808C21.5404 11.635 20.5574 12.5613 19.8691 14.4837" stroke="white" stroke-opacity="0.8" stroke-linecap="round"/>
<path d="M35 24.4604C35 33.4304 27.6255 40.7249 18.5 40.7249C9.37454 40.7249 2.00006 33.4304 2.00006 24.4604C2.00006 23.3215 2.11915 22.5573 2.29719 22.0595C2.46742 21.5836 2.66743 21.4105 2.82587 21.3305C3.01111 21.237 3.3177 21.1818 3.84233 21.2594C4.36471 21.3368 5.0017 21.5302 5.77344 21.8207C6.41681 22.0628 7.11159 22.3557 7.87425 22.6771C8.02299 22.7398 8.17432 22.8036 8.32834 22.8683C9.26222 23.2606 10.2784 23.6794 11.353 24.0617C13.4998 24.8255 15.9233 25.4604 18.5 25.4604C21.0768 25.4604 23.5003 24.8255 25.647 24.0617C26.7216 23.6794 27.7378 23.2606 28.6717 22.8683C28.8258 22.8036 28.9771 22.7398 29.1258 22.6771C29.8885 22.3557 30.5833 22.0628 31.2266 21.8207C31.9984 21.5302 32.6354 21.3368 33.1577 21.2594C33.6824 21.1818 33.989 21.237 34.1742 21.3305C34.3326 21.4105 34.5326 21.5836 34.7029 22.0595C34.8809 22.5573 35 23.3215 35 24.4604Z" fill="#9F8966" stroke="#9F8966" stroke-width="2"/>
<path d="M1.00007 24.642C10.3867 23.4046 25.4307 29.2673 31.8982 35.4768" stroke="#77684F" stroke-width="2"/>
<path d="M4.7545 34.0708C9.55969 33.9415 17.1909 37.4078 19.8919 41.1649" stroke="#77684F" stroke-width="2" stroke-linecap="round"/>
<path d="M2.19401 28.9679C9.74583 28.5006 22.247 33.5783 27.8084 38.5008" stroke="#77684F" stroke-width="2" stroke-linecap="round"/>
<path d="M35.1702 21.9864C29.0862 25.1905 26.8725 27.0951 24.6585 30.6512" stroke="#77684F" stroke-width="2"/>
<path d="M35.4925 21.7208C29.2496 25.0559 26.9668 27.0174 24.6583 30.6514" stroke="#77684F" stroke-width="2"/>
<path d="M35.0167 26.4662C35.5657 26.3815 36.0809 26.7523 36.1675 27.2945C36.254 27.8367 35.8791 28.3448 35.33 28.4296L35.0167 26.4662ZM35.33 28.4296C34.3456 28.5814 33.2098 29.199 32.1757 30.1388C31.1501 31.0709 30.3196 32.2351 29.8972 33.3411L28.0138 32.6379C28.5647 31.1954 29.5954 29.7812 30.8115 28.6759C32.0193 27.5783 33.5057 26.6993 35.0167 26.4662L35.33 28.4296Z" fill="#77684F"/>
</svg>
