<svg width="93" height="41" viewBox="0 0 93 41" fill="none" xmlns="http://www.w3.org/2000/svg">
<path d="M32.46 7.58C32.46 6.6 32.705 5.84167 33.195 5.305C33.7083 4.76833 34.525 4.5 35.645 4.5H52.515C53.0517 4.5 53.4833 4.675 53.81 5.025C54.1367 5.375 54.3 5.78333 54.3 6.25C54.3 6.76333 54.1367 7.195 53.81 7.545C53.4833 7.87167 53.0517 8.035 52.515 8.035H38.06C37.5933 8.035 37.2667 8.14 37.08 8.35C36.8933 8.56 36.8 8.91 36.8 9.4V11.465H52.13C52.6667 11.465 53.0983 11.64 53.425 11.99C53.7517 12.34 53.915 12.7483 53.915 13.215C53.915 13.7283 53.7517 14.16 53.425 14.51C53.0983 14.8367 52.6667 15 52.13 15H36.8C36.8233 16.05 37.0217 16.8783 37.395 17.485C37.7917 18.0683 38.305 18.5117 38.935 18.815C39.5883 19.095 40.3233 19.27 41.14 19.34C41.98 19.41 42.855 19.445 43.765 19.445C44.4417 19.445 45.1417 19.3983 45.865 19.305C46.6117 19.1883 47.3233 19.06 48 18.92C48.7 18.7567 49.3533 18.5817 49.96 18.395C50.5667 18.185 51.08 17.975 51.5 17.765C51.99 17.5317 52.5033 17.4267 53.04 17.45C53.5767 17.45 53.9733 17.7183 54.23 18.255C54.51 18.8617 54.5217 19.3867 54.265 19.83C54.0317 20.25 53.6117 20.6117 53.005 20.915C51.9083 21.4517 50.7067 21.8833 49.4 22.21C48.0933 22.5367 46.8333 22.7583 45.62 22.875V26.76H56.68C57.2167 26.76 57.6483 26.935 57.975 27.285C58.325 27.635 58.5 28.055 58.5 28.545C58.5 29.0817 58.325 29.5017 57.975 29.805C57.6483 30.1317 57.2167 30.295 56.68 30.295H30.08C29.4967 30.295 29.0417 30.1317 28.715 29.805C28.4117 29.5017 28.26 29.0817 28.26 28.545C28.26 28.055 28.4117 27.635 28.715 27.285C29.0417 26.935 29.4967 26.76 30.08 26.76H41.28V22.91C39.95 22.8167 38.7367 22.63 37.64 22.35C36.5667 22.0467 35.645 21.615 34.875 21.055C34.105 20.4717 33.51 19.7367 33.09 18.85C32.67 17.9633 32.46 16.8783 32.46 15.595V7.58ZM89.14 32.36C89.14 33.0367 88.9184 33.5617 88.475 33.935C88.055 34.3083 87.5534 34.495 86.97 34.495C86.3634 34.495 85.85 34.3083 85.43 33.935C85.0334 33.5617 84.835 33.0367 84.835 32.36V4.22C84.835 3.54333 85.0334 3.01833 85.43 2.645C85.85 2.24833 86.3634 2.05 86.97 2.05C87.5534 2.05 88.055 2.24833 88.475 2.645C88.9184 3.01833 89.14 3.54333 89.14 4.22V32.36ZM67.265 20.25C67.265 21.37 67.6617 22.1517 68.455 22.595C69.2484 23.0383 70.52 23.2483 72.27 23.225C73.39 23.2017 74.4167 23.1083 75.35 22.945C76.3067 22.7583 77.205 22.5017 78.045 22.175C78.6284 21.965 79.1534 21.93 79.62 22.07C80.11 22.1867 80.425 22.455 80.565 22.875C80.8217 23.6217 80.7984 24.205 80.495 24.625C80.215 25.0217 79.7717 25.3483 79.165 25.605C78.185 26.0017 77.1117 26.3283 75.945 26.585C74.7784 26.8417 73.5534 26.97 72.27 26.97C70.9634 26.97 69.7384 26.9 68.595 26.76C67.475 26.5967 66.495 26.2817 65.655 25.815C64.815 25.325 64.15 24.6367 63.66 23.75C63.17 22.84 62.925 21.6267 62.925 20.11V16.995C62.925 16.015 63.17 15.2567 63.66 14.72C64.1734 14.1833 64.99 13.915 66.11 13.915H73.88C74.2067 13.915 74.4284 13.8683 74.545 13.775C74.6617 13.6817 74.72 13.5183 74.72 13.285V9.33C74.72 9.05 74.65 8.875 74.51 8.805C74.37 8.735 74.16 8.7 73.88 8.7H64.64C64.1034 8.7 63.6717 8.53667 63.345 8.21C63.0184 7.88333 62.855 7.46333 62.855 6.95C62.855 6.48333 63.0184 6.06333 63.345 5.69C63.6717 5.31667 64.1034 5.13 64.64 5.13H75.91C77.03 5.13 77.835 5.39833 78.325 5.935C78.8384 6.47167 79.095 7.23 79.095 8.21V14.405C79.095 15.385 78.8384 16.1433 78.325 16.68C77.835 17.2167 77.03 17.485 75.91 17.485H68.105C67.7784 17.485 67.5567 17.555 67.44 17.695C67.3234 17.8117 67.265 18.0683 67.265 18.465V20.25Z" fill="#339931"/>
<path d="M12.0959 8.87672C12.2695 10.2202 12.8515 12.0812 10.2796 12.4396C6.29464 12.6734 4.50706 8.29397 4.28913 6.60765C4.0712 4.92133 4.02526 5.27698 5.56927 5.0618C7.11328 4.84663 11.6121 5.13364 12.0959 8.87672Z" fill="#339931"/>
<path d="M11.7186 10.04C11.6231 11.25 11.2127 12.2052 13.4906 12.399C17.6565 12.3704 18.3699 9.14514 18.4897 7.62641C18.6096 6.10767 18.6652 6.42344 17.2977 6.30706C15.9302 6.19067 11.9847 6.66888 11.7186 10.04Z" fill="#339931"/>
<rect x="11.5576" y="11.4175" width="1.02222" height="6.63445" rx="0.511111" fill="#339931"/>
<path d="M6.92214 7.31205C9.46784 7.72069 10.4875 8.60511 11.2421 10.6018" stroke="white" stroke-opacity="0.8" stroke-width="0.5" stroke-linecap="round"/>
<path d="M16.1449 8.33887C14.4979 8.79137 13.8519 9.4321 13.3996 10.7619" stroke="white" stroke-opacity="0.8" stroke-width="0.5" stroke-linecap="round"/>
<path d="M23 17.6643C23 23.7433 18.2638 28.6063 12.5 28.6063C6.73622 28.6063 2 23.7433 2 17.6643C2 16.8898 2.07756 16.3953 2.18048 16.0924C2.2752 15.8137 2.36444 15.7692 2.37245 15.7652C2.37264 15.7651 2.37279 15.7651 2.37289 15.765C2.39806 15.7516 2.50772 15.7069 2.81004 15.754C3.1118 15.8011 3.49995 15.9227 3.99996 16.1208C4.41533 16.2853 4.86391 16.4843 5.36516 16.7067C5.46332 16.7502 5.5635 16.7947 5.66584 16.8399C6.28056 17.1117 6.95637 17.405 7.67296 17.6734C9.10322 18.209 10.7433 18.6644 12.5 18.6644C14.2567 18.6644 15.8968 18.209 17.327 17.6734C18.0436 17.405 18.7194 17.1117 19.3342 16.8399C19.4365 16.7947 19.5367 16.7502 19.6348 16.7067C20.1361 16.4843 20.5847 16.2853 21 16.1208C21.5001 15.9227 21.8882 15.8011 22.19 15.754C22.4923 15.7069 22.6019 15.7516 22.6271 15.765L22.6276 15.7652C22.6356 15.7692 22.7248 15.8137 22.8195 16.0924C22.9224 16.3953 23 16.8898 23 17.6643Z" fill="#9F8966" stroke="#9F8966" stroke-width="2"/>
<path d="M1.00022 17.79C7.16859 16.9341 17.0547 20.9894 21.3047 25.2845" stroke="#77684F"/>
<path d="M3.46726 24.3107C6.62496 24.2212 11.6398 26.6188 13.4147 29.2177" stroke="#77684F" stroke-linecap="round"/>
<path d="M1.78465 20.7821C6.74728 20.4588 14.9624 23.9711 18.617 27.376" stroke="#77684F" stroke-linecap="round"/>
<path d="M23.3431 15.2591C19.3451 17.4754 17.8903 18.7928 16.4354 21.2526" stroke="#77684F"/>
<path d="M23.3824 19.2293C23.6502 19.1858 23.9004 19.3759 23.9412 19.6538C23.982 19.9318 23.7981 20.1923 23.5303 20.2358L23.3824 19.2293ZM23.5303 20.2358C22.8392 20.3481 22.0636 20.7982 21.3697 21.462C20.6799 22.1219 20.1175 22.949 19.8292 23.7437L18.9115 23.3877C19.2628 22.4196 19.9234 21.4633 20.7068 20.7139C21.4861 19.9683 22.4337 19.3834 23.3824 19.2293L23.5303 20.2358Z" fill="#77684F"/>
</svg>
